<svg xmlns="http://www.w3.org/2000/svg" xmlns:xlink="http://www.w3.org/1999/xlink" viewBox="0 0 1920 1080"><defs><style>.cls-1{fill:none;}.cls-2{fill:url(#radial-gradient);}.cls-3{fill:url(#radial-gradient-2);}.cls-4{mix-blend-mode:color-dodge;}.cls-5{fill:url(#radial-gradient-3);}.cls-6{isolation:isolate;}.cls-7{clip-path:url(#clip-path);}.cls-8{fill:url(#radial-gradient-4);}.cls-9{fill:url(#radial-gradient-5);}.cls-10{opacity:0.24;}.cls-11{mix-blend-mode:overlay;}.cls-12{fill:url(#radial-gradient-6);}</style><radialGradient id="radial-gradient" cx="71" cy="71" r="71" gradientUnits="userSpaceOnUse"><stop offset="0" stop-color="#fff"/><stop offset="0.1134" stop-opacity="0"/></radialGradient><radialGradient id="radial-gradient-2" cx="73.5" cy="73.5" r="73.5" gradientUnits="userSpaceOnUse"><stop offset="0" stop-color="#fff"/><stop offset="0.14397" stop-color="#fff" stop-opacity="0.81238"/><stop offset="0.38062" stop-color="#fff" stop-opacity="0.52714"/><stop offset="0.59316" stop-color="#fff" stop-opacity="0.30058"/><stop offset="0.77363" stop-color="#fff" stop-opacity="0.13729"/><stop offset="0.91508" stop-color="#fff" stop-opacity="0.03703"/><stop offset="1" stop-color="#fff" stop-opacity="0"/></radialGradient><radialGradient id="radial-gradient-3" cx="47.5" cy="47.5" r="47.5" gradientUnits="userSpaceOnUse"><stop offset="0" stop-color="#fff"/><stop offset="0.01524" stop-color="#f6f6f6" stop-opacity="0.96345"/><stop offset="0.12724" stop-color="#b6b6b6" stop-opacity="0.71203"/><stop offset="0.23776" stop-color="#7e7e7e" stop-opacity="0.49503"/><stop offset="0.34406" stop-color="#515151" stop-opacity="0.31753"/><stop offset="0.44534" stop-color="#2e2e2e" stop-opacity="0.17939"/><stop offset="0.54024" stop-color="#151515" stop-opacity="0.08054"/><stop offset="0.62635" stop-color="#050505" stop-opacity="0.02077"/><stop offset="0.69588" stop-opacity="0"/></radialGradient><clipPath id="clip-path"><rect class="cls-1" width="1920" height="1080"/></clipPath><radialGradient id="radial-gradient-4" cx="992.85245" cy="1020.07681" r="778.43836" gradientTransform="translate(0 -275.8153) scale(1 1.27039)" gradientUnits="userSpaceOnUse"><stop offset="0" stop-color="#d4145a"/><stop offset="0.07578" stop-color="#ae1453"/><stop offset="0.16882" stop-color="#87144b"/><stop offset="0.26868" stop-color="#661445"/><stop offset="0.37489" stop-color="#4a143f"/><stop offset="0.48972" stop-color="#35143b"/><stop offset="0.61741" stop-color="#261438"/><stop offset="0.76814" stop-color="#1e1437"/><stop offset="1" stop-color="#1b1436"/></radialGradient><radialGradient id="radial-gradient-5" cx="975.50523" cy="540" r="299.4576" gradientTransform="translate(-423.92058 -240.9772) scale(1.43457 1.44625)" gradientUnits="userSpaceOnUse"><stop offset="0.62652"/><stop offset="0.95443" stop-color="#42210b" stop-opacity="0"/></radialGradient><radialGradient id="radial-gradient-6" cx="960" r="387.18839" gradientTransform="matrix(1, 0, 0, 1, 0, 0)" xlink:href="#radial-gradient-5"/><symbol id="New_Symbol_1" data-name="New Symbol 1" viewBox="0 0 147 147"><circle class="cls-3" cx="73.5" cy="73.5" r="73.5"/></symbol><symbol id="New_Symbol_2" data-name="New Symbol 2" viewBox="0 0 95 95"><g class="cls-4"><g class="cls-4"><g class="cls-4"><circle class="cls-5" cx="47.5" cy="47.5" r="47.5"/></g></g></g></symbol><symbol id="New_Symbol" data-name="New Symbol" viewBox="0 0 142 142"><circle class="cls-2" cx="71" cy="71" r="71"/></symbol></defs><title>bg</title><g class="cls-6"><g id="Layer_1" data-name="Layer 1"><g id="Main"><g class="cls-7"><rect class="cls-8" x="0.5" y="0.5" width="1919" height="1079"/><path d="M1919,1V1079H1V1H1919m1-1H0V1080H1920V0Z"/><rect class="cls-9" x="345.01047" y="96" width="1260.98953" height="888"/><g class="cls-10"><use width="147" height="147" transform="translate(991.46479 695.78911) scale(2.41728)" xlink:href="#New_Symbol_1"/><use width="147" height="147" transform="translate(512.65267 556.94912) scale(2.41728)" xlink:href="#New_Symbol_1"/><use width="147" height="147" transform="translate(558.9247 424.03653) scale(2.41728)" xlink:href="#New_Symbol_1"/><use width="147" height="147" transform="translate(483.52163 347.39741) scale(2.41728)" xlink:href="#New_Symbol_1"/><use width="147" height="147" transform="translate(224.93697 301.67975) scale(2.41728)" xlink:href="#New_Symbol_1"/><use width="95" height="95" transform="translate(-108.9642 -159.38913) scale(2.41728)" xlink:href="#New_Symbol_2"/><use width="95" height="95" transform="translate(-138.39521 -61.35041) scale(2.41728)" xlink:href="#New_Symbol_2"/><use width="95" height="95" transform="translate(-35.59084 -92.02604) scale(2.41728)" xlink:href="#New_Symbol_2"/><use width="95" height="95" transform="translate(-51.57573 39.91785) scale(2.41728)" xlink:href="#New_Symbol_2"/><use width="95" height="95" transform="translate(58.93844 70.11377) scale(2.41728)" xlink:href="#New_Symbol_2"/><use width="95" height="95" transform="translate(50.08306 -43.56207) scale(2.41728)" xlink:href="#New_Symbol_2"/><use width="95" height="95" transform="translate(-64.43622 385.62041) scale(2.41728)" xlink:href="#New_Symbol_2"/><use width="95" height="95" transform="translate(-60.21798 525.17238) scale(2.41728)" xlink:href="#New_Symbol_2"/><use width="95" height="95" transform="translate(73.01313 554.37678) scale(2.41728)" xlink:href="#New_Symbol_2"/><use width="95" height="95" transform="translate(-40.06693 613.30696) scale(2.41728)" xlink:href="#New_Symbol_2"/><use width="95" height="95" transform="translate(-20.7607 698.71364) scale(2.41728)" xlink:href="#New_Symbol_2"/><use width="95" height="95" transform="translate(90.22891 720.14963) scale(2.41728)" xlink:href="#New_Symbol_2"/></g><use width="95" height="95" transform="translate(571.12806 150.54862) scale(1 0.95194)" xlink:href="#New_Symbol_2"/><use width="95" height="95" transform="translate(166.05536 365.72813) scale(1 0.95194)" xlink:href="#New_Symbol_2"/><use width="95" height="95" transform="translate(836.02305 455.53885) scale(1 0.95194)" xlink:href="#New_Symbol_2"/><use width="95" height="95" transform="translate(555.48154 541.47091) scale(1 0.95194)" xlink:href="#New_Symbol_2"/><use width="95" height="95" transform="translate(1520.82983 712.41857) scale(1 0.95194)" xlink:href="#New_Symbol_2"/><use width="95" height="95" transform="translate(1052.55693 585.93846) scale(1 0.95194)" xlink:href="#New_Symbol_2"/><use width="95" height="95" transform="translate(1400.47563 470.47135) scale(1 0.95194)" xlink:href="#New_Symbol_2"/><use width="95" height="95" transform="translate(1403.19366 374.0353) scale(1 0.95194)" xlink:href="#New_Symbol_2"/><use width="95" height="95" transform="translate(1070.01493 434.82488) scale(1 0.95194)" xlink:href="#New_Symbol_2"/><use width="95" height="95" transform="translate(1508.55471 528.9197) scale(1 0.95194)" xlink:href="#New_Symbol_2"/><use width="95" height="95" transform="translate(953.14579 188.52513) scale(1 0.95194)" xlink:href="#New_Symbol_2"/><use width="95" height="95" transform="translate(1010.29926 406.13904) scale(1 0.95194)" xlink:href="#New_Symbol_2"/><use width="95" height="95" transform="translate(905.91379 474.53528) scale(1 0.95194)" xlink:href="#New_Symbol_2"/><use width="95" height="95" transform="translate(673.38003 707.45991) scale(1 0.95194)" xlink:href="#New_Symbol_2"/><use width="95" height="95" transform="translate(1146.85633 399.25102) scale(1 0.95194)" xlink:href="#New_Symbol_2"/><use width="95" height="95" transform="translate(856.94545 777.29234) scale(1 0.95194)" xlink:href="#New_Symbol_2"/><use width="95" height="95" transform="translate(973.25514 499.12453) scale(1 0.95194)" xlink:href="#New_Symbol_2"/><use width="95" height="95" transform="translate(996.88547 877.81328) scale(1 0.95194)" xlink:href="#New_Symbol_2"/><use width="95" height="95" transform="translate(516.65463 746.52339) scale(1 0.95194)" xlink:href="#New_Symbol_2"/><use width="95" height="95" transform="translate(1295.55093 523.84877) scale(1 0.95194)" xlink:href="#New_Symbol_2"/><use width="95" height="95" transform="translate(410.28375 405.89982) scale(1 0.95194)" xlink:href="#New_Symbol_2"/><use width="95" height="95" transform="translate(1197.11446 347.12002) scale(1 0.95194)" xlink:href="#New_Symbol_2"/><use width="95" height="95" transform="translate(724.67282 582.28993) scale(1 0.95194)" xlink:href="#New_Symbol_2"/><use width="95" height="95" transform="translate(1301.22919 634.50898) scale(1 0.95194)" xlink:href="#New_Symbol_2"/><use width="95" height="95" transform="translate(607.98496 524.03156) scale(1 0.95194)" xlink:href="#New_Symbol_2"/><use width="95" height="95" transform="translate(985.08812 914.82807) scale(1 0.95194)" xlink:href="#New_Symbol_2"/><use width="95" height="95" transform="translate(826.59043 528.98122) scale(1 0.95194)" xlink:href="#New_Symbol_2"/><use width="95" height="95" transform="translate(1525.12788 352.13044) scale(1 0.95194)" xlink:href="#New_Symbol_2"/><use width="95" height="95" transform="translate(1177.58812 890.57946) scale(1 0.95194)" xlink:href="#New_Symbol_2"/><use width="95" height="95" transform="translate(1199.35733 952.43003) scale(1 0.95194)" xlink:href="#New_Symbol_2"/><use width="95" height="95" transform="translate(1100.88111 894.60145) scale(1 0.95194)" xlink:href="#New_Symbol_2"/><use width="95" height="95" transform="translate(1503.79095 243.44717) scale(1 0.95194)" xlink:href="#New_Symbol_2"/><use width="95" height="95" transform="translate(1162.02356 146.21398) scale(1 0.95194)" xlink:href="#New_Symbol_2"/><use width="95" height="95" transform="translate(1306.81116 127.86204) scale(1 0.95194)" xlink:href="#New_Symbol_2"/><use width="95" height="95" transform="translate(1371.05744 30.62815) scale(1 0.95194)" xlink:href="#New_Symbol_2"/><use width="95" height="95" transform="translate(1182.47213 239.32634) scale(1 0.95194)" xlink:href="#New_Symbol_2"/><use width="95" height="95" transform="translate(1001.66973 272.67621) scale(1 0.95194)" xlink:href="#New_Symbol_2"/><use width="95" height="95" transform="translate(874.64575 324.30136) scale(1 0.95194)" xlink:href="#New_Symbol_2"/><use width="95" height="95" transform="translate(587.75161 445.94264) scale(1 0.95194)" xlink:href="#New_Symbol_2"/><use width="95" height="95" transform="translate(597.57686 360.94524) scale(1 0.95194)" xlink:href="#New_Symbol_2"/><use width="95" height="95" transform="translate(316.07056 22.8642) scale(1 0.95194)" xlink:href="#New_Symbol_2"/><use width="95" height="95" transform="translate(135.30839 605.8192) scale(1 0.95194)" xlink:href="#New_Symbol_2"/><use width="95" height="95" transform="translate(402.94459 758.79341) scale(1 0.95194)" xlink:href="#New_Symbol_2"/><use width="95" height="95" transform="translate(828.14184 707.86456) scale(1 0.95194)" xlink:href="#New_Symbol_2"/><use width="95" height="95" transform="translate(810.59738 858.87553) scale(1 0.95194)" xlink:href="#New_Symbol_2"/><use width="95" height="95" transform="translate(575.01951 846.56355) scale(1 0.95194)" xlink:href="#New_Symbol_2"/><use width="95" height="95" transform="translate(411.84478 707.23998) scale(1 0.95194)" xlink:href="#New_Symbol_2"/><use width="95" height="95" transform="translate(213.08328 841.11872) scale(1 0.95194)" xlink:href="#New_Symbol_2"/><use width="95" height="95" transform="translate(172.7993 877.13991) scale(1 0.95194)" xlink:href="#New_Symbol_2"/><use width="95" height="95" transform="translate(162.27257 911.45143) scale(1 0.95194)" xlink:href="#New_Symbol_2"/><use width="95" height="95" transform="translate(55.14923 515.29739) scale(1 0.95194)" xlink:href="#New_Symbol_2"/><use width="95" height="95" transform="translate(94.28952 384.03762) scale(1 0.95194)" xlink:href="#New_Symbol_2"/><use width="95" height="95" transform="translate(50.58037 238.68126) scale(1 0.95194)" xlink:href="#New_Symbol_2"/><use width="95" height="95" transform="translate(56.50197 104.07489) scale(1 0.95194)" xlink:href="#New_Symbol_2"/><use width="95" height="95" transform="translate(253.60799 351.52936) scale(1 0.95194)" xlink:href="#New_Symbol_2"/><use width="95" height="95" transform="translate(127.62919 686.26329) scale(1 0.95194)" xlink:href="#New_Symbol_2"/><use width="95" height="95" transform="translate(71.27736 765.10463) scale(1 0.95194)" xlink:href="#New_Symbol_2"/><use width="95" height="95" transform="translate(277.49293 985.56546) scale(1 0.95194)" xlink:href="#New_Symbol_2"/><use width="95" height="95" transform="translate(634.39478 896.49102) scale(1 0.95194)" xlink:href="#New_Symbol_2"/><use width="95" height="95" transform="translate(1147.93269 730.58741) scale(1 0.95194)" xlink:href="#New_Symbol_2"/><use width="95" height="95" transform="translate(1669.63723 861.98448) scale(1 0.95194)" xlink:href="#New_Symbol_2"/><use width="95" height="95" transform="translate(1729.27077 841.37839) scale(1 0.95194)" xlink:href="#New_Symbol_2"/><use width="95" height="95" transform="translate(1764.87143 879.90458) scale(1 0.95194)" xlink:href="#New_Symbol_2"/><use width="95" height="95" transform="translate(1809.74129 558.54736) scale(1 0.95194)" xlink:href="#New_Symbol_2"/><use width="95" height="95" transform="translate(1816.06274 370.66906) scale(1 0.95194)" xlink:href="#New_Symbol_2"/><use width="95" height="95" transform="translate(1786.10564 194.69901) scale(1 0.95194)" xlink:href="#New_Symbol_2"/><use width="95" height="95" transform="translate(1804.74523 46.20309) scale(1 0.95194)" xlink:href="#New_Symbol_2"/><use width="95" height="95" transform="translate(1282.32612 49.82515) scale(1 0.95194)" xlink:href="#New_Symbol_2"/><use width="95" height="95" transform="translate(1135.56289 59.18423) scale(1 0.95194)" xlink:href="#New_Symbol_2"/><use width="95" height="95" transform="translate(822.81567 63.97761) scale(1 0.95194)" xlink:href="#New_Symbol_2"/><use width="95" height="95" transform="translate(684.01072 35.24008) scale(1 0.95194)" xlink:href="#New_Symbol_2"/><use width="95" height="95" transform="translate(450.7374) scale(1 0.95194)" xlink:href="#New_Symbol_2"/><use width="95" height="95" transform="translate(327.3785 60.64997) scale(1 0.95194)" xlink:href="#New_Symbol_2"/><use width="95" height="95" transform="translate(225.4602 82.05049) scale(1 0.95194)" xlink:href="#New_Symbol_2"/><use width="95" height="95" transform="translate(35.88296 268.33459) scale(1 0.95194)" xlink:href="#New_Symbol_2"/><use width="95" height="95" transform="translate(-13 305.89454) scale(1 0.95194)" xlink:href="#New_Symbol_2"/><use width="95" height="95" transform="translate(592.08431 655.45698) scale(1 0.95194)" xlink:href="#New_Symbol_2"/><use width="95" height="95" transform="translate(784.76621 760.20833) scale(1 0.95194)" xlink:href="#New_Symbol_2"/><use width="95" height="95" transform="translate(993.75013 834.42537) scale(1 0.95194)" xlink:href="#New_Symbol_2"/><use width="95" height="95" transform="translate(884.68249 733.90456) scale(1 0.95194)" xlink:href="#New_Symbol_2"/><use width="95" height="95" transform="translate(1063.17103 730.35187) scale(1 0.95194)" xlink:href="#New_Symbol_2"/><use width="95" height="95" transform="translate(639.34108 586.28425) scale(1 0.95194)" xlink:href="#New_Symbol_2"/><use width="95" height="95" transform="translate(911.28316 348.5521) scale(1 0.95194)" xlink:href="#New_Symbol_2"/><use width="95" height="95" transform="translate(975.48358 448.943) scale(1 0.95194)" xlink:href="#New_Symbol_2"/><use width="95" height="95" transform="translate(640.90979 190.53086) scale(1 0.95194)" xlink:href="#New_Symbol_2"/><use width="95" height="95" transform="translate(875.60029 278.6311) scale(1 0.95194)" xlink:href="#New_Symbol_2"/><use width="95" height="95" transform="translate(829.47372 199.66921) scale(1 0.95194)" xlink:href="#New_Symbol_2"/><use width="95" height="95" transform="translate(409.68521 332.44748) scale(1 0.95194)" xlink:href="#New_Symbol_2"/><use width="95" height="95" transform="translate(726.34385 379.36731) scale(1 0.95194)" xlink:href="#New_Symbol_2"/><use width="95" height="95" transform="translate(726.65523 309.09288) scale(1 0.95194)" xlink:href="#New_Symbol_2"/><use width="95" height="95" transform="translate(756.28442 356.99459) scale(1 0.95194)" xlink:href="#New_Symbol_2"/><use width="95" height="95" transform="translate(676.97961 338.40044) scale(1 0.95194)" xlink:href="#New_Symbol_2"/><use width="95" height="95" transform="translate(395.44986 239.26721) scale(1 0.95194)" xlink:href="#New_Symbol_2"/><use width="95" height="95" transform="translate(449.62825 204.273) scale(1 0.95194)" xlink:href="#New_Symbol_2"/><use width="95" height="95" transform="translate(348.08379 245.41819) scale(1 0.95194)" xlink:href="#New_Symbol_2"/><use width="95" height="95" transform="translate(508.78239 228.449) scale(1 0.95194)" xlink:href="#New_Symbol_2"/><use width="95" height="95" transform="translate(522.77409 328.2362) scale(1 0.95194)" xlink:href="#New_Symbol_2"/><use width="95" height="95" transform="translate(510.355 361.41373) scale(1 0.95194)" xlink:href="#New_Symbol_2"/><use width="95" height="95" transform="translate(463.87179 564.47266) scale(1 0.95194)" xlink:href="#New_Symbol_2"/><use width="95" height="95" transform="translate(346.8701 612.97671) scale(1 0.95194)" xlink:href="#New_Symbol_2"/><use width="95" height="95" transform="translate(253.5257 566.75467) scale(1 0.95194)" xlink:href="#New_Symbol_2"/><use width="95" height="95" transform="translate(279.62001 493.7787) scale(1 0.95194)" xlink:href="#New_Symbol_2"/><use width="95" height="95" transform="translate(362.85376 398.16247) scale(1 0.95194)" xlink:href="#New_Symbol_2"/><use width="95" height="95" transform="translate(257.92516 433.41147) scale(1 0.95194)" xlink:href="#New_Symbol_2"/><use width="95" height="95" transform="translate(275.43461 120.55878) scale(1 0.95194)" xlink:href="#New_Symbol_2"/><use width="95" height="95" transform="translate(261.76705 72.96373) scale(1 0.95194)" xlink:href="#New_Symbol_2"/><use width="95" height="95" transform="translate(316.51684 132.0763) scale(1 0.95194)" xlink:href="#New_Symbol_2"/><use width="95" height="95" transform="translate(86.40457 157.08623) scale(1 0.95194)" xlink:href="#New_Symbol_2"/><use width="95" height="95" transform="translate(268.0947 301.75562) scale(1 0.95194)" xlink:href="#New_Symbol_2"/><use width="95" height="95" transform="translate(1594.76879 316.96998) scale(1 0.95194)" xlink:href="#New_Symbol_2"/><use width="95" height="95" transform="translate(1786.23284 338.95729) scale(1 0.95194)" xlink:href="#New_Symbol_2"/><use width="95" height="95" transform="translate(1362.1031 383.71651) scale(1 0.95194)" xlink:href="#New_Symbol_2"/><use width="95" height="95" transform="translate(1408.77845 185.26567) scale(1 0.95194)" xlink:href="#New_Symbol_2"/><use width="95" height="95" transform="translate(1428.15113 280.85332) scale(1 0.95194)" xlink:href="#New_Symbol_2"/><use width="95" height="95" transform="translate(1534.5473 268.35178) scale(1 0.95194)" xlink:href="#New_Symbol_2"/><use width="95" height="95" transform="translate(1494.8224 168.60939) scale(1 0.95194)" xlink:href="#New_Symbol_2"/><use width="95" height="95" transform="translate(1786.47898 718.16358) scale(1 0.95194)" xlink:href="#New_Symbol_2"/><use width="95" height="95" transform="translate(1671.29821 650.96585) scale(1 0.95194)" xlink:href="#New_Symbol_2"/><use width="95" height="95" transform="translate(1626.77256 696.85742) scale(1 0.95194)" xlink:href="#New_Symbol_2"/><use width="95" height="95" transform="translate(1579.30685 777.5037) scale(1 0.95194)" xlink:href="#New_Symbol_2"/><use width="95" height="95" transform="translate(1402.67768 712.47352) scale(1 0.95194)" xlink:href="#New_Symbol_2"/><g class="cls-11"><use width="147" height="147" transform="translate(239.22452 373.64059) scale(1.01914 0.92565)" xlink:href="#New_Symbol_1"/><use width="147" height="147" transform="translate(420.12201 283.55364) scale(1.01914 0.92565)" xlink:href="#New_Symbol_1"/><use width="147" height="147" transform="translate(660.73506 237.94009) scale(1.01914 0.92565)" xlink:href="#New_Symbol_1"/><use width="147" height="147" transform="translate(795.60078 244.35573) scale(1.01914 0.92565)" xlink:href="#New_Symbol_1"/><use width="147" height="147" transform="translate(900.58296 234.49685) scale(1.01914 0.92565)" xlink:href="#New_Symbol_1"/><use width="147" height="147" transform="translate(1145.13142 224.52681) scale(1.01914 0.92565)" xlink:href="#New_Symbol_1"/><use width="147" height="147" transform="translate(1319.3409 232.92774) scale(1.01914 0.92565)" xlink:href="#New_Symbol_1"/><use width="147" height="147" transform="translate(1406.28384 234.97041) scale(1.01914 0.92565)" xlink:href="#New_Symbol_1"/><use width="147" height="147" transform="translate(1459.45794 293.84217) scale(1.01914 0.92565)" xlink:href="#New_Symbol_1"/><use width="147" height="147" transform="translate(1456.19019 400.07074) scale(1.01914 0.92565)" xlink:href="#New_Symbol_1"/><use width="147" height="147" transform="translate(1434.75944 513.47899) scale(1.01914 0.92565)" xlink:href="#New_Symbol_1"/><use width="147" height="147" transform="translate(1358.16835 563.01516) scale(1.01914 0.92565)" xlink:href="#New_Symbol_1"/><use width="147" height="147" transform="translate(1237.35819 523.83193) scale(1.01914 0.92565)" xlink:href="#New_Symbol_1"/><use width="147" height="147" transform="translate(957.61549 493.40083) scale(1.01914 0.92565)" xlink:href="#New_Symbol_1"/><use width="147" height="147" transform="translate(913.69022 446.70385) scale(1.01914 0.92565)" xlink:href="#New_Symbol_1"/><use width="147" height="147" transform="translate(745.36702 345.63741) scale(1.01914 0.92565)" xlink:href="#New_Symbol_1"/><use width="147" height="147" transform="translate(657.86581 323.01551) scale(1.01914 0.92565)" xlink:href="#New_Symbol_1"/><use width="147" height="147" transform="translate(1109.4925 340.99969) scale(1.01914 0.92565)" xlink:href="#New_Symbol_1"/><use width="147" height="147" transform="translate(1200.90223 355.74398) scale(1.01914 0.92565)" xlink:href="#New_Symbol_1"/><use width="147" height="147" transform="translate(1283.85748 365.56361) scale(1.01914 0.92565)" xlink:href="#New_Symbol_1"/><use width="147" height="147" transform="translate(1260.10767 400.41052) scale(1.01914 0.92565)" xlink:href="#New_Symbol_1"/><use width="147" height="147" transform="translate(1336.4938 400.03438) scale(1.01914 0.92565)" xlink:href="#New_Symbol_1"/><use width="147" height="147" transform="translate(928.72201 328.12841) scale(1.01914 0.92565)" xlink:href="#New_Symbol_1"/><use width="147" height="147" transform="translate(792.52946 410.28066) scale(1.01914 0.92565)" xlink:href="#New_Symbol_1"/><use width="147" height="147" transform="translate(688.40116 566.59159) scale(1.01914 0.92565)" xlink:href="#New_Symbol_1"/><use width="147" height="147" transform="translate(628.89147 637.02414) scale(1.01914 0.92565)" xlink:href="#New_Symbol_1"/><use width="147" height="147" transform="translate(412.29582 588.58116) scale(1.01914 0.92565)" xlink:href="#New_Symbol_1"/><use width="147" height="147" transform="translate(433.46811 496.53788) scale(1.01914 0.92565)" xlink:href="#New_Symbol_1"/><use width="147" height="147" transform="translate(503.78125 -4.08444) scale(1.01914 0.92565)" xlink:href="#New_Symbol_1"/><use width="147" height="147" transform="translate(1088.69677 31.10225) scale(1.01914 0.92565)" xlink:href="#New_Symbol_1"/><use width="147" height="147" transform="translate(912.15792 121.61879) scale(1.01914 0.92565)" xlink:href="#New_Symbol_1"/><use width="147" height="147" transform="translate(653.57749 146.72051) scale(1.01914 0.92565)" xlink:href="#New_Symbol_1"/><use width="147" height="147" transform="translate(1033.18835 100.78501) scale(1.01914 0.92565)" xlink:href="#New_Symbol_1"/><use width="147" height="147" transform="translate(349.25267 4.16567) scale(1.01914 0.92565)" xlink:href="#New_Symbol_1"/><use width="147" height="147" transform="translate(417.17718 -0.22743) scale(1.01914 0.92565)" xlink:href="#New_Symbol_1"/><use width="147" height="147" transform="translate(284.22011 85.4472) scale(1.01914 0.92565)" xlink:href="#New_Symbol_1"/><use width="147" height="147" transform="translate(452.41527 76.36492) scale(1.01914 0.92565)" xlink:href="#New_Symbol_1"/><use width="147" height="147" transform="translate(522.41036 131.72703) scale(1.01914 0.92565)" xlink:href="#New_Symbol_1"/><use width="147" height="147" transform="translate(418.76969 322.00512) scale(1.01914 0.92565)" xlink:href="#New_Symbol_1"/><use width="147" height="147" transform="translate(343.83849 396.28549) scale(1.01914 0.92565)" xlink:href="#New_Symbol_1"/><use width="147" height="147" transform="translate(342.77464 312.83537) scale(1.01914 0.92565)" xlink:href="#New_Symbol_1"/><use width="147" height="147" transform="translate(186.28546 121.34901) scale(1.01914 0.92565)" xlink:href="#New_Symbol_1"/><use width="147" height="147" transform="translate(35.14285 229.42014) scale(1.01914 0.92565)" xlink:href="#New_Symbol_1"/><use width="147" height="147" transform="translate(250.55368 661.52823) scale(1.01914 0.92565)" xlink:href="#New_Symbol_1"/><use width="147" height="147" transform="translate(447.59479 902.26682) scale(1.01914 0.92565)" xlink:href="#New_Symbol_1"/><use width="147" height="147" transform="translate(112.89237 658.55196) scale(1.01914 0.92565)" xlink:href="#New_Symbol_1"/><use width="147" height="147" transform="translate(178.89412 711.6731) scale(1.01914 0.92565)" xlink:href="#New_Symbol_1"/><use width="147" height="147" transform="translate(179.51902 810.61431) scale(1.01914 0.92565)" xlink:href="#New_Symbol_1"/><use width="147" height="147" transform="translate(104.65617 822.58285) scale(1.01914 0.92565)" xlink:href="#New_Symbol_1"/><use width="147" height="147" transform="translate(58.85444 535.37208) scale(1.01914 0.92565)" xlink:href="#New_Symbol_1"/><use width="147" height="147" transform="translate(46.16573 435.00182) scale(1.01914 0.92565)" xlink:href="#New_Symbol_1"/><use width="147" height="147" transform="translate(30.14513 699.87708) scale(1.01914 0.92565)" xlink:href="#New_Symbol_1"/><use width="147" height="147" transform="translate(403.74055 847.16302) scale(1.01914 0.92565)" xlink:href="#New_Symbol_1"/><use width="147" height="147" transform="translate(563.50803 778.2861) scale(1.01914 0.92565)" xlink:href="#New_Symbol_1"/><use width="147" height="147" transform="translate(701.21326 815.44165) scale(1.01914 0.92565)" xlink:href="#New_Symbol_1"/><use width="147" height="147" transform="translate(929.70019 799.23199) scale(1.01914 0.92565)" xlink:href="#New_Symbol_1"/><use width="147" height="147" transform="translate(1252.07096 745.5152) scale(1.01914 0.92565)" xlink:href="#New_Symbol_1"/><use width="147" height="147" transform="translate(1428.18869 712.52456) scale(1.01914 0.92565)" xlink:href="#New_Symbol_1"/><use width="147" height="147" transform="translate(1368.61212 787.66499) scale(1.01914 0.92565)" xlink:href="#New_Symbol_1"/><use width="147" height="147" transform="translate(1524.86628 778.54604) scale(1.01914 0.92565)" xlink:href="#New_Symbol_1"/><use width="147" height="147" transform="translate(1510.15819 861.7937) scale(1.01914 0.92565)" xlink:href="#New_Symbol_1"/><use width="147" height="147" transform="translate(1612.96439 876.3959) scale(1.01914 0.92565)" xlink:href="#New_Symbol_1"/><use width="147" height="147" transform="translate(1661.06024 837.85963) scale(1.01914 0.92565)" xlink:href="#New_Symbol_1"/><use width="147" height="147" transform="translate(1715.07623 834.12213) scale(1.01914 0.92565)" xlink:href="#New_Symbol_1"/><use width="147" height="147" transform="translate(1666.65789 669.07633) scale(1.01914 0.92565)" xlink:href="#New_Symbol_1"/><use width="147" height="147" transform="translate(1655.38474 544.32685) scale(1.01914 0.92565)" xlink:href="#New_Symbol_1"/><use width="147" height="147" transform="translate(1698.67014 464.03632) scale(1.01914 0.92565)" xlink:href="#New_Symbol_1"/><use width="147" height="147" transform="translate(1761.18655 520.4228) scale(1.01914 0.92565)" xlink:href="#New_Symbol_1"/><use width="147" height="147" transform="translate(1672.32701 410.23671) scale(1.01914 0.92565)" xlink:href="#New_Symbol_1"/><use width="147" height="147" transform="translate(1729.21635 297.27203) scale(1.01914 0.92565)" xlink:href="#New_Symbol_1"/><use width="147" height="147" transform="translate(1717.78602 240.00772) scale(1.01914 0.92565)" xlink:href="#New_Symbol_1"/><use width="147" height="147" transform="translate(1681.35223 161.00644) scale(1.01914 0.92565)" xlink:href="#New_Symbol_1"/><use width="147" height="147" transform="translate(123.91087 -15.14373) scale(1.01914 0.92565)" xlink:href="#New_Symbol_1"/><use width="147" height="147" transform="translate(271.20758 206.64666) scale(1.01914 0.92565)" xlink:href="#New_Symbol_1"/><use width="147" height="147" transform="translate(285.46077 164.78735) scale(1.01914 0.92565)" xlink:href="#New_Symbol_1"/><use width="147" height="147" transform="translate(345.40582 172.97693) scale(1.01914 0.92565)" xlink:href="#New_Symbol_1"/><use width="147" height="147" transform="translate(377.39758 208.15498) scale(1.01914 0.92565)" xlink:href="#New_Symbol_1"/><use width="147" height="147" transform="translate(482.88292 233.76796) scale(1.01914 0.92565)" xlink:href="#New_Symbol_1"/><use width="147" height="147" transform="translate(194.35598 187.94218) scale(1.01914 0.92565)" xlink:href="#New_Symbol_1"/><use width="147" height="147" transform="translate(196.64936 60.15878) scale(1.01914 0.92565)" xlink:href="#New_Symbol_1"/><use width="147" height="147" transform="translate(142.27429 33.07843) scale(1.01914 0.92565)" xlink:href="#New_Symbol_1"/><use width="147" height="147" transform="translate(60.3039 43.246) scale(1.01914 0.92565)" xlink:href="#New_Symbol_1"/><use width="147" height="147" transform="translate(60.74143 -9.29031) scale(1.01914 0.92565)" xlink:href="#New_Symbol_1"/><use width="147" height="147" transform="translate(0 161.88147) scale(1.01914 0.92565)" xlink:href="#New_Symbol_1"/><use width="147" height="147" transform="translate(201.41648 300.39423) scale(1.01914 0.92565)" xlink:href="#New_Symbol_1"/><use width="147" height="147" transform="translate(134.34572 252.56853) scale(1.01914 0.92565)" xlink:href="#New_Symbol_1"/><use width="147" height="147" transform="translate(69.47407 200.09711) scale(1.01914 0.92565)" xlink:href="#New_Symbol_1"/><use width="147" height="147" transform="translate(82.32396 129.8458) scale(1.01914 0.92565)" xlink:href="#New_Symbol_1"/><use width="147" height="147" transform="translate(14.68552 120.11011) scale(1.01914 0.92565)" xlink:href="#New_Symbol_1"/><use width="147" height="147" transform="translate(868.16884 -27.69322) scale(1.01914 0.92565)" xlink:href="#New_Symbol_1"/><use width="147" height="147" transform="translate(723.10135 -39) scale(1.01914 0.92565)" xlink:href="#New_Symbol_1"/><use width="147" height="147" transform="translate(1566.84076 84.39395) scale(1.01914 0.92565)" xlink:href="#New_Symbol_1"/><use width="147" height="147" transform="translate(1388.75282 -6.738) scale(1.01914 0.92565)" xlink:href="#New_Symbol_1"/><use width="147" height="147" transform="translate(1322.60311 24.45607) scale(1.01914 0.92565)" xlink:href="#New_Symbol_1"/><use width="147" height="147" transform="translate(849.31899 827.9375) scale(1.01914 0.92565)" xlink:href="#New_Symbol_1"/><use width="147" height="147" transform="translate(1235.33224 951.92921) scale(1.01914 0.92565)" xlink:href="#New_Symbol_1"/><use width="147" height="147" transform="translate(921.70371 907.84473) scale(1.01914 0.92565)" xlink:href="#New_Symbol_1"/><use width="147" height="147" transform="translate(956.07615 859.72589) scale(1.01914 0.92565)" xlink:href="#New_Symbol_1"/><use width="147" height="147" transform="translate(1204.91613 878.26038) scale(1.01914 0.92565)" xlink:href="#New_Symbol_1"/><use width="147" height="147" transform="translate(1125.20611 926.87614) scale(1.01914 0.92565)" xlink:href="#New_Symbol_1"/><use width="147" height="147" transform="translate(1178.40136 772.0889) scale(1.01914 0.92565)" xlink:href="#New_Symbol_1"/><use width="147" height="147" transform="translate(1132.64337 772.69918) scale(1.01914 0.92565)" xlink:href="#New_Symbol_1"/><use width="147" height="147" transform="translate(1133.77302 815.66645) scale(1.01914 0.92565)" xlink:href="#New_Symbol_1"/><use width="147" height="147" transform="translate(1074.43414 787.85737) scale(1.01914 0.92565)" xlink:href="#New_Symbol_1"/><use width="147" height="147" transform="translate(1094.25478 856.28126) scale(1.01914 0.92565)" xlink:href="#New_Symbol_1"/><use width="147" height="147" transform="translate(1086.57362 730.21467) scale(1.01914 0.92565)" xlink:href="#New_Symbol_1"/><use width="147" height="147" transform="translate(1126.66979 707.13587) scale(1.01914 0.92565)" xlink:href="#New_Symbol_1"/><use width="147" height="147" transform="translate(972.4295 766.68513) scale(1.01914 0.92565)" xlink:href="#New_Symbol_1"/><use width="147" height="147" transform="translate(843.81923 908.63701) scale(1.01914 0.92565)" xlink:href="#New_Symbol_1"/><use width="147" height="147" transform="translate(1012.79093 890.39058) scale(1.01914 0.92565)" xlink:href="#New_Symbol_1"/><use width="147" height="147" transform="translate(819.83448 874.24391) scale(1.01914 0.92565)" xlink:href="#New_Symbol_1"/><use width="147" height="147" transform="translate(916.5854 719.11721) scale(1.01914 0.92565)" xlink:href="#New_Symbol_1"/><use width="147" height="147" transform="translate(783.28399 945.8595) scale(1.01914 0.92565)" xlink:href="#New_Symbol_1"/><use width="147" height="147" transform="translate(723.67844 765.06867) scale(1.01914 0.92565)" xlink:href="#New_Symbol_1"/><use width="147" height="147" transform="translate(632.0697 828.76495) scale(1.01914 0.92565)" xlink:href="#New_Symbol_1"/><use width="147" height="147" transform="translate(588.70281 886.53417) scale(1.01914 0.92565)" xlink:href="#New_Symbol_1"/><use width="147" height="147" transform="translate(720.13618 889.52251) scale(1.01914 0.92565)" xlink:href="#New_Symbol_1"/><use width="147" height="147" transform="translate(545.41512 921.4389) scale(1.01914 0.92565)" xlink:href="#New_Symbol_1"/><use width="147" height="147" transform="translate(600.37856 729.17336) scale(1.01914 0.92565)" xlink:href="#New_Symbol_1"/><use width="147" height="147" transform="translate(546.59096 809.91648) scale(1.01914 0.92565)" xlink:href="#New_Symbol_1"/><use width="147" height="147" transform="translate(843.31388 714.42401) scale(1.01914 0.92565)" xlink:href="#New_Symbol_1"/><use width="147" height="147" transform="translate(698.582 725.5071) scale(1.01914 0.92565)" xlink:href="#New_Symbol_1"/><use width="147" height="147" transform="translate(1006.35949 645.99241) scale(1.01914 0.92565)" xlink:href="#New_Symbol_1"/><use width="147" height="147" transform="translate(989.63655 709.42609) scale(1.01914 0.92565)" xlink:href="#New_Symbol_1"/><use width="147" height="147" transform="translate(721.22573 605.94539) scale(1.01914 0.92565)" xlink:href="#New_Symbol_1"/><use width="147" height="147" transform="translate(958.19071 629.32152) scale(1.01914 0.92565)" xlink:href="#New_Symbol_1"/><use width="147" height="147" transform="translate(596.04098 548.86667) scale(1.01914 0.92565)" xlink:href="#New_Symbol_1"/><use width="147" height="147" transform="translate(793.57842 626.97991) scale(1.01914 0.92565)" xlink:href="#New_Symbol_1"/><use width="147" height="147" transform="translate(848.37548 516.48887) scale(1.01914 0.92565)" xlink:href="#New_Symbol_1"/><use width="147" height="147" transform="translate(905.56879 539.59315) scale(1.01914 0.92565)" xlink:href="#New_Symbol_1"/><use width="147" height="147" transform="translate(820.76551 565.60891) scale(1.01914 0.92565)" xlink:href="#New_Symbol_1"/><use width="147" height="147" transform="translate(1059.30274 606.21562) scale(1.01914 0.92565)" xlink:href="#New_Symbol_1"/><use width="147" height="147" transform="translate(892.66055 581.04534) scale(1.01914 0.92565)" xlink:href="#New_Symbol_1"/><use width="147" height="147" transform="translate(1183.88512 617.66401) scale(1.01914 0.92565)" xlink:href="#New_Symbol_1"/><use width="147" height="147" transform="translate(1193.59024 665.06634) scale(1.01914 0.92565)" xlink:href="#New_Symbol_1"/><use width="147" height="147" transform="translate(1252.99253 640.1444) scale(1.01914 0.92565)" xlink:href="#New_Symbol_1"/><use width="147" height="147" transform="translate(1100.47764 515.16913) scale(1.01914 0.92565)" xlink:href="#New_Symbol_1"/><use width="147" height="147" transform="translate(1149.60375 574.33098) scale(1.01914 0.92565)" xlink:href="#New_Symbol_1"/><use width="147" height="147" transform="translate(1298.21753 874.80848) scale(1.01914 0.92565)" xlink:href="#New_Symbol_1"/><use width="147" height="147" transform="translate(1384.48374 918.02956) scale(1.01914 0.92565)" xlink:href="#New_Symbol_1"/><use width="147" height="147" transform="translate(1316.81516 937.94303) scale(1.01914 0.92565)" xlink:href="#New_Symbol_1"/><use width="147" height="147" transform="translate(1412.99071 857.92067) scale(1.01914 0.92565)" xlink:href="#New_Symbol_1"/><use width="147" height="147" transform="translate(1417.85124 795.93855) scale(1.01914 0.92565)" xlink:href="#New_Symbol_1"/><use width="147" height="147" transform="translate(1119.0547 616.61663) scale(1.01914 0.92565)" xlink:href="#New_Symbol_1"/><use width="147" height="147" transform="translate(1065.99738 452.61555) scale(1.01914 0.92565)" xlink:href="#New_Symbol_1"/><use width="147" height="147" transform="translate(902.40534 394.83584) scale(1.01914 0.92565)" xlink:href="#New_Symbol_1"/><use width="147" height="147" transform="translate(673.14538 429.62023) scale(1.01914 0.92565)" xlink:href="#New_Symbol_1"/><use width="147" height="147" transform="translate(709.00218 514.33102) scale(1.01914 0.92565)" xlink:href="#New_Symbol_1"/><use width="147" height="147" transform="translate(516.3698 574.11797) scale(1.01914 0.92565)" xlink:href="#New_Symbol_1"/><use width="147" height="147" transform="translate(524.09525 671.57613) scale(1.01914 0.92565)" xlink:href="#New_Symbol_1"/><use width="147" height="147" transform="translate(469.65525 757.7957) scale(1.01914 0.92565)" xlink:href="#New_Symbol_1"/><use width="147" height="147" transform="translate(390.34733 731.13354) scale(1.01914 0.92565)" xlink:href="#New_Symbol_1"/><use width="147" height="147" transform="translate(327.24907 721.22397) scale(1.01914 0.92565)" xlink:href="#New_Symbol_1"/><use width="147" height="147" transform="translate(337.66695 772.75294) scale(1.01914 0.92565)" xlink:href="#New_Symbol_1"/><use width="147" height="147" transform="translate(319.77132 857.83521) scale(1.01914 0.92565)" xlink:href="#New_Symbol_1"/><use width="147" height="147" transform="translate(518.36534 841.53481) scale(1.01914 0.92565)" xlink:href="#New_Symbol_1"/><use width="147" height="147" transform="translate(478.16614 715.20603) scale(1.01914 0.92565)" xlink:href="#New_Symbol_1"/><use width="147" height="147" transform="translate(617.57606 503.47449) scale(1.01914 0.92565)" xlink:href="#New_Symbol_1"/><use width="147" height="147" transform="translate(721.85149 451.78305) scale(1.01914 0.92565)" xlink:href="#New_Symbol_1"/><use width="147" height="147" transform="translate(840.71957 458.9289) scale(1.01914 0.92565)" xlink:href="#New_Symbol_1"/><use width="147" height="147" transform="translate(1024.94132 477.32423) scale(1.01914 0.92565)" xlink:href="#New_Symbol_1"/><use width="147" height="147" transform="translate(1175.89868 511.17768) scale(1.01914 0.92565)" xlink:href="#New_Symbol_1"/><use width="147" height="147" transform="translate(1310.19931 613.53362) scale(1.01914 0.92565)" xlink:href="#New_Symbol_1"/><use width="147" height="147" transform="translate(1316.97792 688.33659) scale(1.01914 0.92565)" xlink:href="#New_Symbol_1"/></g><use width="142" height="142" transform="translate(1315.5262 305.22992) scale(0.74971 0.61151)" xlink:href="#New_Symbol"/><use width="142" height="142" transform="translate(1123.67273 221.75154) scale(0.74971 0.61151)" xlink:href="#New_Symbol"/><use width="142" height="142" transform="translate(1035.45953 211.80143) scale(0.74971 0.61151)" xlink:href="#New_Symbol"/><use width="142" height="142" transform="translate(956.90853 184.49234) scale(0.74971 0.61151)" xlink:href="#New_Symbol"/><use width="142" height="142" transform="translate(861.75499 165.11599) scale(0.74971 0.61151)" xlink:href="#New_Symbol"/><use width="142" height="142" transform="translate(770.92417 157.06696) scale(0.74971 0.61151)" xlink:href="#New_Symbol"/><use width="142" height="142" transform="translate(685.51776 196.65607) scale(0.74971 0.61151)" xlink:href="#New_Symbol"/><use width="142" height="142" transform="translate(606.57611 252.23288) scale(0.74971 0.61151)" xlink:href="#New_Symbol"/><use width="142" height="142" transform="translate(583.90884 301.05568) scale(0.74971 0.61151)" xlink:href="#New_Symbol"/><use width="142" height="142" transform="translate(693.28561 325.25886) scale(0.74971 0.61151)" xlink:href="#New_Symbol"/><use width="142" height="142" transform="translate(863.52324 333.22481) scale(0.74971 0.61151)" xlink:href="#New_Symbol"/><use width="142" height="142" transform="translate(1007.63775 325.21196) scale(0.74971 0.61151)" xlink:href="#New_Symbol"/><use width="142" height="142" transform="translate(1182.48378 337.15849) scale(0.74971 0.61151)" xlink:href="#New_Symbol"/><use width="142" height="142" transform="translate(1370.80423 384.13214) scale(0.74971 0.61151)" xlink:href="#New_Symbol"/><use width="142" height="142" transform="translate(1410.29569 425.50575) scale(0.74971 0.61151)" xlink:href="#New_Symbol"/><use width="142" height="142" transform="translate(1415.05264 396.28674) scale(0.74971 0.61151)" xlink:href="#New_Symbol"/><use width="142" height="142" transform="translate(1108.54421 249.8996) scale(0.74971 0.61151)" xlink:href="#New_Symbol"/><use width="142" height="142" transform="translate(964.23664 215.86775) scale(0.74971 0.61151)" xlink:href="#New_Symbol"/><use width="142" height="142" transform="translate(807.3701 193.65694) scale(0.74971 0.61151)" xlink:href="#New_Symbol"/><use width="142" height="142" transform="translate(645.35215 236.6921) scale(0.74971 0.61151)" xlink:href="#New_Symbol"/><use width="142" height="142" transform="translate(521.78042 284.85696) scale(0.74971 0.61151)" xlink:href="#New_Symbol"/><use width="142" height="142" transform="translate(478.8052 319.4323) scale(0.74971 0.61151)" xlink:href="#New_Symbol"/><use width="142" height="142" transform="translate(755.7996 255.08122) scale(0.74971 0.61151)" xlink:href="#New_Symbol"/><use width="142" height="142" transform="translate(1224.32714 367.52109) scale(0.74971 0.61151)" xlink:href="#New_Symbol"/><use width="142" height="142" transform="translate(1326.87056 482.41593) scale(0.74971 0.61151)" xlink:href="#New_Symbol"/><use width="142" height="142" transform="translate(1476.75642 648.59264) scale(0.74971 0.61151)" xlink:href="#New_Symbol"/><use width="142" height="142" transform="translate(1193.5631 477.97547) scale(0.74971 0.61151)" xlink:href="#New_Symbol"/><use width="142" height="142" transform="translate(974.88174 383.09547) scale(0.74971 0.61151)" xlink:href="#New_Symbol"/><use width="142" height="142" transform="translate(1134.76249 345.31673) scale(0.74971 0.61151)" xlink:href="#New_Symbol"/><use width="142" height="142" transform="translate(1095.04558 303.60684) scale(0.74971 0.61151)" xlink:href="#New_Symbol"/><use width="142" height="142" transform="translate(737.95521 342.78981) scale(0.74971 0.61151)" xlink:href="#New_Symbol"/><use width="142" height="142" transform="translate(602.51556 414.0346) scale(0.74971 0.61151)" xlink:href="#New_Symbol"/><use width="142" height="142" transform="translate(401.84188 510.33764) scale(0.74971 0.61151)" xlink:href="#New_Symbol"/><use width="142" height="142" transform="translate(234.27037 546.89731) scale(0.74971 0.61151)" xlink:href="#New_Symbol"/><use width="142" height="142" transform="translate(186.88928 454.98916) scale(0.74971 0.61151)" xlink:href="#New_Symbol"/><use width="142" height="142" transform="translate(198.92482 331.58679) scale(0.74971 0.61151)" xlink:href="#New_Symbol"/><use width="142" height="142" transform="translate(224.56832 492.90531) scale(0.74971 0.61151)" xlink:href="#New_Symbol"/><use width="142" height="142" transform="translate(533.25134 569.19443) scale(0.74971 0.61151)" xlink:href="#New_Symbol"/><use width="142" height="142" transform="translate(797.69113 508.68072) scale(0.74971 0.61151)" xlink:href="#New_Symbol"/><use width="142" height="142" transform="translate(1189.26116 582.95976) scale(0.74971 0.61151)" xlink:href="#New_Symbol"/><use width="142" height="142" transform="translate(1517.68959 570.25503) scale(0.74971 0.61151)" xlink:href="#New_Symbol"/><use width="142" height="142" transform="translate(1575.00483 438.90169) scale(0.74971 0.61151)" xlink:href="#New_Symbol"/><use width="142" height="142" transform="translate(1549.8062 308.72225) scale(0.74971 0.61151)" xlink:href="#New_Symbol"/><use width="142" height="142" transform="translate(1538.90103 266.17023) scale(0.74971 0.61151)" xlink:href="#New_Symbol"/><use width="142" height="142" transform="translate(1410.20385 186.19902) scale(0.74971 0.61151)" xlink:href="#New_Symbol"/><use width="142" height="142" transform="translate(1152.59231 125.59993) scale(0.74971 0.61151)" xlink:href="#New_Symbol"/><use width="142" height="142" transform="translate(727.0052 101.03977) scale(0.74971 0.61151)" xlink:href="#New_Symbol"/><use width="142" height="142" transform="translate(1520.98935 505.94962) scale(0.74971 0.61151)" xlink:href="#New_Symbol"/><use width="142" height="142" transform="translate(1080.6454 143.41906) scale(0.74971 0.61151)" xlink:href="#New_Symbol"/><use width="142" height="142" transform="translate(828.64837 106.21166) scale(0.74971 0.61151)" xlink:href="#New_Symbol"/><use width="142" height="142" transform="translate(658.58494 152.48896) scale(0.74971 0.61151)" xlink:href="#New_Symbol"/><use width="142" height="142" transform="translate(306.97033 346.14387) scale(0.74971 0.61151)" xlink:href="#New_Symbol"/><use width="142" height="142" transform="translate(282.09208 519.77372) scale(0.74971 0.61151)" xlink:href="#New_Symbol"/><use width="142" height="142" transform="translate(880.58746 662.98123) scale(0.74971 0.61151)" xlink:href="#New_Symbol"/><use width="142" height="142" transform="translate(1214.95351 642.65994) scale(0.74971 0.61151)" xlink:href="#New_Symbol"/><use width="142" height="142" transform="translate(1430.70258 561.33441) scale(0.74971 0.61151)" xlink:href="#New_Symbol"/><use width="142" height="142" transform="translate(1251.53595 426.5352) scale(0.74971 0.61151)" xlink:href="#New_Symbol"/><use width="142" height="142" transform="translate(726.06174 151.01835) scale(0.74971 0.61151)" xlink:href="#New_Symbol"/><use width="142" height="142" transform="translate(406.39882 203.40754) scale(0.74971 0.61151)" xlink:href="#New_Symbol"/><use width="142" height="142" transform="translate(179.91284 240.65316) scale(0.74971 0.61151)" xlink:href="#New_Symbol"/><use width="142" height="142" transform="translate(297.48293 53.55519) scale(0.74971 0.61151)" xlink:href="#New_Symbol"/><use width="142" height="142" transform="translate(144.02117 311.12459) scale(0.74971 0.61151)" xlink:href="#New_Symbol"/><use width="142" height="142" transform="translate(196.88514 193.2279) scale(0.74971 0.61151)" xlink:href="#New_Symbol"/><use width="142" height="142" transform="translate(171.90525 289.94539) scale(0.74971 0.61151)" xlink:href="#New_Symbol"/><use width="142" height="142" transform="translate(97.82103 510.05366) scale(0.74971 0.61151)" xlink:href="#New_Symbol"/><use width="142" height="142" transform="translate(826.2303 281.1054) scale(0.74971 0.61151)" xlink:href="#New_Symbol"/><use width="142" height="142" transform="translate(544.20969 689.92366) scale(0.74971 0.61151)" xlink:href="#New_Symbol"/><use width="142" height="142" transform="translate(1063.91013 416.41616) scale(0.74971 0.61151)" xlink:href="#New_Symbol"/><use width="142" height="142" transform="translate(1522.40602 427.51267) scale(0.74971 0.61151)" xlink:href="#New_Symbol"/><use width="142" height="142" transform="translate(1145.53049 665.98265) scale(0.74971 0.61151)" xlink:href="#New_Symbol"/><use width="142" height="142" transform="translate(1776.79012 601.09309) scale(0.74971 0.61151)" xlink:href="#New_Symbol"/><use width="142" height="142" transform="translate(1685.57754 498.54779) scale(0.74971 0.61151)" xlink:href="#New_Symbol"/><use width="142" height="142" transform="translate(887.77797 208.30006) scale(0.74971 0.61151)" xlink:href="#New_Symbol"/><use width="142" height="142" transform="translate(637.90882 482.89351) scale(0.74971 0.61151)" xlink:href="#New_Symbol"/><use width="142" height="142" transform="translate(1159.9133 532.35885) scale(0.74971 0.61151)" xlink:href="#New_Symbol"/><use width="142" height="142" transform="translate(888.69215 109.80219) scale(0.74971 0.61151)" xlink:href="#New_Symbol"/><use width="142" height="142" transform="translate(86.82072 327.58666) scale(0.74971 0.61151)" xlink:href="#New_Symbol"/><use width="142" height="142" transform="translate(74.15704 541.53694) scale(0.74971 0.61151)" xlink:href="#New_Symbol"/><use width="142" height="142" transform="translate(232.78091 461.89355) scale(0.74971 0.61151)" xlink:href="#New_Symbol"/><use width="142" height="142" transform="translate(607.92056 819.6607) scale(0.74971 0.61151)" xlink:href="#New_Symbol"/><use width="142" height="142" transform="translate(442.52936 864.55185) scale(0.74971 0.61151)" xlink:href="#New_Symbol"/><use width="142" height="142" transform="translate(694.30345 858.05735) scale(0.74971 0.61151)" xlink:href="#New_Symbol"/><use width="142" height="142" transform="translate(121.5735 748.50238) scale(0.74971 0.61151)" xlink:href="#New_Symbol"/><use width="142" height="142" transform="translate(376.39106 730.03095) scale(0.74971 0.61151)" xlink:href="#New_Symbol"/><use width="142" height="142" transform="translate(176.0982 806.69852) scale(0.74971 0.61151)" xlink:href="#New_Symbol"/><use width="142" height="142" transform="translate(435.17594 789.27467) scale(0.74971 0.61151)" xlink:href="#New_Symbol"/><use width="142" height="142" transform="translate(461.82422 769.73006) scale(0.74971 0.61151)" xlink:href="#New_Symbol"/><use width="142" height="142" transform="translate(296.44242 610.13364) scale(0.74971 0.61151)" xlink:href="#New_Symbol"/><use width="142" height="142" transform="translate(428.95596 658.53903) scale(0.74971 0.61151)" xlink:href="#New_Symbol"/><use width="142" height="142" transform="translate(359.68991 704.95886) scale(0.74971 0.61151)" xlink:href="#New_Symbol"/><use width="142" height="142" transform="translate(1039.89763 742.51024) scale(0.74971 0.61151)" xlink:href="#New_Symbol"/><use width="142" height="142" transform="translate(790.24304 770.32227) scale(0.74971 0.61151)" xlink:href="#New_Symbol"/><use width="142" height="142" transform="translate(1550.97669 656.09865) scale(0.74971 0.61151)" xlink:href="#New_Symbol"/><use width="142" height="142" transform="translate(1423.22822 766.69924) scale(0.74971 0.61151)" xlink:href="#New_Symbol"/><use width="142" height="142" transform="translate(1737.21388 661.35238) scale(0.74971 0.61151)" xlink:href="#New_Symbol"/><use width="142" height="142" transform="translate(1667.36539 729.66305) scale(0.74971 0.61151)" xlink:href="#New_Symbol"/><use width="142" height="142" transform="translate(1647.02289 485.31694) scale(0.74971 0.61151)" xlink:href="#New_Symbol"/><use width="142" height="142" transform="translate(1736.0826 723.4142) scale(0.74971 0.61151)" xlink:href="#New_Symbol"/><use width="142" height="142" transform="translate(1573.44887 503.75362) scale(0.74971 0.61151)" xlink:href="#New_Symbol"/><use width="142" height="142" transform="translate(1634.18037 524.68388) scale(0.74971 0.61151)" xlink:href="#New_Symbol"/><use width="142" height="142" transform="translate(1388.64476 646.09654) scale(0.74971 0.61151)" xlink:href="#New_Symbol"/><use width="142" height="142" transform="translate(1494.10884 440.75008) scale(0.74971 0.61151)" xlink:href="#New_Symbol"/><use width="142" height="142" transform="translate(1458.62194 612.70191) scale(0.74971 0.61151)" xlink:href="#New_Symbol"/><use width="142" height="142" transform="translate(1288.07652 290.98176) scale(0.74971 0.61151)" xlink:href="#New_Symbol"/><use width="142" height="142" transform="translate(1351.90167 609.85127) scale(0.74971 0.61151)" xlink:href="#New_Symbol"/><use width="142" height="142" transform="translate(1318.90431 410.20805) scale(0.74971 0.61151)" xlink:href="#New_Symbol"/><use width="142" height="142" transform="translate(1378.36172 563.17598) scale(0.74971 0.61151)" xlink:href="#New_Symbol"/><use width="142" height="142" transform="translate(1218.7802 900.69319) scale(0.74971 0.61151)" xlink:href="#New_Symbol"/><use width="142" height="142" transform="translate(1253.83694 959.71966) scale(0.74971 0.61151)" xlink:href="#New_Symbol"/><use width="142" height="142" transform="translate(1277.69643 928.43873) scale(0.74971 0.61151)" xlink:href="#New_Symbol"/><use width="142" height="142" transform="translate(1325.25309 777.89629) scale(0.74971 0.61151)" xlink:href="#New_Symbol"/><use width="142" height="142" transform="translate(1801.11474 653.48346) scale(0.74971 0.61151)" xlink:href="#New_Symbol"/><use width="142" height="142" transform="translate(1195.14414 401.88383) scale(0.74971 0.61151)" xlink:href="#New_Symbol"/><use width="142" height="142" transform="translate(1497.93744 327.26661) scale(0.74971 0.61151)" xlink:href="#New_Symbol"/><use width="142" height="142" transform="translate(1127.82652 273.91453) scale(0.74971 0.61151)" xlink:href="#New_Symbol"/><use width="142" height="142" transform="translate(1362.43531 249.8552) scale(0.74971 0.61151)" xlink:href="#New_Symbol"/><use width="142" height="142" transform="translate(1305.40159 521.21891) scale(0.74971 0.61151)" xlink:href="#New_Symbol"/><use width="142" height="142" transform="translate(1474.223 299.72211) scale(0.74971 0.61151)" xlink:href="#New_Symbol"/><use width="142" height="142" transform="translate(1439.37478 218.7572) scale(0.74971 0.61151)" xlink:href="#New_Symbol"/><use width="142" height="142" transform="translate(1201.71879 310.72746) scale(0.74971 0.61151)" xlink:href="#New_Symbol"/><use width="142" height="142" transform="translate(1331.92762 379.05471) scale(0.74971 0.61151)" xlink:href="#New_Symbol"/><use width="142" height="142" transform="translate(1048.25927 68.05188) scale(0.74971 0.61151)" xlink:href="#New_Symbol"/><use width="142" height="142" transform="translate(1660.69074 250.01462) scale(0.74971 0.61151)" xlink:href="#New_Symbol"/><use width="142" height="142" transform="translate(1326.66885 257.01135) scale(0.74971 0.61151)" xlink:href="#New_Symbol"/><use width="142" height="142" transform="translate(1440.15134 48.31786) scale(0.74971 0.61151)" xlink:href="#New_Symbol"/><use width="142" height="142" transform="translate(1089.49664 374.34802) scale(0.74971 0.61151)" xlink:href="#New_Symbol"/><use width="142" height="142" transform="translate(697.71413 483.30587) scale(0.74971 0.61151)" xlink:href="#New_Symbol"/><use width="142" height="142" transform="translate(1015.751 693.2501) scale(0.74971 0.61151)" xlink:href="#New_Symbol"/><use width="142" height="142" transform="translate(563.84013 486.12555) scale(0.74971 0.61151)" xlink:href="#New_Symbol"/><use width="142" height="142" transform="translate(1032.00859 568.48433) scale(0.74971 0.61151)" xlink:href="#New_Symbol"/><use width="142" height="142" transform="translate(479.63505 645.53687) scale(0.74971 0.61151)" xlink:href="#New_Symbol"/><use width="142" height="142" transform="translate(935.5714 474.98416) scale(0.74971 0.61151)" xlink:href="#New_Symbol"/><use width="142" height="142" transform="translate(903.70106 602.44612) scale(0.74971 0.61151)" xlink:href="#New_Symbol"/><use width="142" height="142" transform="translate(1155.37819 462.47921) scale(0.74971 0.61151)" xlink:href="#New_Symbol"/><use width="142" height="142" transform="translate(840.63846 534.84659) scale(0.74971 0.61151)" xlink:href="#New_Symbol"/><use width="142" height="142" transform="translate(733.62796 377.03981) scale(0.74971 0.61151)" xlink:href="#New_Symbol"/><use width="142" height="142" transform="translate(901.26606 303.40079) scale(0.74971 0.61151)" xlink:href="#New_Symbol"/><use width="142" height="142" transform="translate(438.89108 135.68306) scale(0.74971 0.61151)" xlink:href="#New_Symbol"/><use width="142" height="142" transform="translate(819.46512 215.81279) scale(0.74971 0.61151)" xlink:href="#New_Symbol"/><use width="142" height="142" transform="translate(738.16587 303.39244) scale(0.74971 0.61151)" xlink:href="#New_Symbol"/><use width="142" height="142" transform="translate(362.26509 100.32958) scale(0.74971 0.61151)" xlink:href="#New_Symbol"/><use width="142" height="142" transform="translate(373.76307 133.0196) scale(0.74971 0.61151)" xlink:href="#New_Symbol"/><use width="142" height="142" transform="translate(126.82057 348.3762) scale(0.74971 0.61151)" xlink:href="#New_Symbol"/><use width="142" height="142" transform="translate(394.85147 69.18108) scale(0.74971 0.61151)" xlink:href="#New_Symbol"/><use width="142" height="142" transform="translate(174.57901 394.91333) scale(0.74971 0.61151)" xlink:href="#New_Symbol"/><use width="142" height="142" transform="translate(322.57114 642.6637) scale(0.74971 0.61151)" xlink:href="#New_Symbol"/><use width="142" height="142" transform="translate(288.81539 577.85787) scale(0.74971 0.61151)" xlink:href="#New_Symbol"/><use width="142" height="142" transform="translate(49.06307 687.11218) scale(0.74971 0.61151)" xlink:href="#New_Symbol"/><use width="142" height="142" transform="translate(341.26385 793.113) scale(0.74971 0.61151)" xlink:href="#New_Symbol"/><use width="142" height="142" transform="translate(85.22925 799.93661) scale(0.74971 0.61151)" xlink:href="#New_Symbol"/><use width="142" height="142" transform="translate(408.2657 699.98843) scale(0.74971 0.61151)" xlink:href="#New_Symbol"/><use width="142" height="142" transform="translate(791.7596 961.7171) scale(0.74971 0.61151)" xlink:href="#New_Symbol"/><use width="142" height="142" transform="translate(656.10645 799.119) scale(0.74971 0.61151)" xlink:href="#New_Symbol"/><use width="142" height="142" transform="translate(1578.79222 629.89455) scale(0.74971 0.61151)" xlink:href="#New_Symbol"/><use width="142" height="142" transform="translate(1361.32489 340.10727) scale(0.74971 0.61151)" xlink:href="#New_Symbol"/><use width="142" height="142" transform="translate(505.26096 112.72213) scale(0.74971 0.61151)" xlink:href="#New_Symbol"/><use width="142" height="142" transform="translate(1020.29541 258.62553) scale(0.74971 0.61151)" xlink:href="#New_Symbol"/><use width="142" height="142" transform="translate(1312.99351 344.29433) scale(0.74971 0.61151)" xlink:href="#New_Symbol"/><use width="142" height="142" transform="translate(1823.75979 374.2903) scale(0.74971 0.61151)" xlink:href="#New_Symbol"/><use width="142" height="142" transform="translate(886.63462 568.33623) scale(0.74971 0.61151)" xlink:href="#New_Symbol"/><use width="142" height="142" transform="translate(518.07235 623.353) scale(0.74971 0.61151)" xlink:href="#New_Symbol"/><use width="142" height="142" transform="translate(930.65086 647.16376) scale(0.74971 0.61151)" xlink:href="#New_Symbol"/><use width="142" height="142" transform="translate(817.28612 704.80747) scale(0.74971 0.61151)" xlink:href="#New_Symbol"/><use width="142" height="142" transform="translate(736.81423 743.38646) scale(0.74971 0.61151)" xlink:href="#New_Symbol"/><use width="142" height="142" transform="translate(592.07059 728.21628) scale(0.74971 0.61151)" xlink:href="#New_Symbol"/><use width="142" height="142" transform="translate(677.29117 665.68487) scale(0.74971 0.61151)" xlink:href="#New_Symbol"/><use width="142" height="142" transform="translate(630.587 657.41626) scale(0.74971 0.61151)" xlink:href="#New_Symbol"/><use width="142" height="142" transform="translate(593.9042 623.24068) scale(0.74971 0.61151)" xlink:href="#New_Symbol"/><use width="142" height="142" transform="translate(702.24244 629.59958) scale(0.74971 0.61151)" xlink:href="#New_Symbol"/><use width="142" height="142" transform="translate(588.67701 651.94303) scale(0.74971 0.61151)" xlink:href="#New_Symbol"/><use width="142" height="142" transform="translate(784.01908 642.60864) scale(0.74971 0.61151)" xlink:href="#New_Symbol"/><use width="142" height="142" transform="translate(745.61048 659.35705) scale(0.74971 0.61151)" xlink:href="#New_Symbol"/><use width="142" height="142" transform="translate(656.51189 560.83763) scale(0.74971 0.61151)" xlink:href="#New_Symbol"/><use width="142" height="142" transform="translate(716.3617 581.61025) scale(0.74971 0.61151)" xlink:href="#New_Symbol"/><use width="142" height="142" transform="translate(697.93942 556.02448) scale(0.74971 0.61151)" xlink:href="#New_Symbol"/><use width="142" height="142" transform="translate(487.89433 484.24248) scale(0.74971 0.61151)" xlink:href="#New_Symbol"/><use width="142" height="142" transform="translate(528.97 387.1184) scale(0.74971 0.61151)" xlink:href="#New_Symbol"/><use width="142" height="142" transform="translate(389.12018 385.89917) scale(0.74971 0.61151)" xlink:href="#New_Symbol"/><use width="142" height="142" transform="translate(422.30158 404.422) scale(0.74971 0.61151)" xlink:href="#New_Symbol"/><use width="142" height="142" transform="translate(379.05665 437.56174) scale(0.74971 0.61151)" xlink:href="#New_Symbol"/><use width="142" height="142" transform="translate(448.29639 531.56546) scale(0.74971 0.61151)" xlink:href="#New_Symbol"/><use width="142" height="142" transform="translate(417.10369 448.00931) scale(0.74971 0.61151)" xlink:href="#New_Symbol"/><use width="142" height="142" transform="translate(513.17514 462.58122) scale(0.74971 0.61151)" xlink:href="#New_Symbol"/><use width="142" height="142" transform="translate(590.01413 453.13924) scale(0.74971 0.61151)" xlink:href="#New_Symbol"/><use width="142" height="142" transform="translate(630.42312 384.75596) scale(0.74971 0.61151)" xlink:href="#New_Symbol"/><use width="142" height="142" transform="translate(723.06521 410.50948) scale(0.74971 0.61151)" xlink:href="#New_Symbol"/><use width="142" height="142" transform="translate(830.94081 407.30845) scale(0.74971 0.61151)" xlink:href="#New_Symbol"/><use width="142" height="142" transform="translate(930.7774 432.34752) scale(0.74971 0.61151)" xlink:href="#New_Symbol"/><use width="142" height="142" transform="translate(858.09563 476.5999) scale(0.74971 0.61151)" xlink:href="#New_Symbol"/><use width="142" height="142" transform="translate(994.72575 566.1029) scale(0.74971 0.61151)" xlink:href="#New_Symbol"/><use width="142" height="142" transform="translate(1239.22908 769.35084) scale(0.74971 0.61151)" xlink:href="#New_Symbol"/><use width="142" height="142" transform="translate(1262.97279 821.10065) scale(0.74971 0.61151)" xlink:href="#New_Symbol"/><use width="142" height="142" transform="translate(1272.43296 889.37498) scale(0.74971 0.61151)" xlink:href="#New_Symbol"/><use width="142" height="142" transform="translate(1321.85844 842.25511) scale(0.74971 0.61151)" xlink:href="#New_Symbol"/><use width="142" height="142" transform="translate(1138.0497 775.03214) scale(0.74971 0.61151)" xlink:href="#New_Symbol"/><use width="142" height="142" transform="translate(1344.43241 548.15658) scale(0.74971 0.61151)" xlink:href="#New_Symbol"/><use width="142" height="142" transform="translate(1437.6235 293.09474) scale(0.74971 0.61151)" xlink:href="#New_Symbol"/><use width="142" height="142" transform="translate(1331.65365 128.75615) scale(0.74971 0.61151)" xlink:href="#New_Symbol"/><use width="142" height="142" transform="translate(1358.80945 92.39062) scale(0.74971 0.61151)" xlink:href="#New_Symbol"/><use width="142" height="142" transform="translate(1336.46064 70.28302) scale(0.74971 0.61151)" xlink:href="#New_Symbol"/><use width="142" height="142" transform="translate(1295.16219 99.43157) scale(0.74971 0.61151)" xlink:href="#New_Symbol"/><use width="142" height="142" transform="translate(1235.82624 60.39058) scale(0.74971 0.61151)" xlink:href="#New_Symbol"/><use width="142" height="142" transform="translate(1237.41237 153.37837) scale(0.74971 0.61151)" xlink:href="#New_Symbol"/><use width="142" height="142" transform="translate(1271.00924 183.57514) scale(0.74971 0.61151)" xlink:href="#New_Symbol"/><use width="142" height="142" transform="translate(1156.64065 236.17855) scale(0.74971 0.61151)" xlink:href="#New_Symbol"/><use width="142" height="142" transform="translate(1265.23582 225.66199) scale(0.74971 0.61151)" xlink:href="#New_Symbol"/><use width="142" height="142" transform="translate(1237.97802 247.22942) scale(0.74971 0.61151)" xlink:href="#New_Symbol"/><use width="142" height="142" transform="translate(1328.5756 437.06474) scale(0.74971 0.61151)" xlink:href="#New_Symbol"/><use width="142" height="142" transform="translate(1409.2072 588.21521) scale(0.74971 0.61151)" xlink:href="#New_Symbol"/><use width="142" height="142" transform="translate(1455.41051 708.38628) scale(0.74971 0.61151)" xlink:href="#New_Symbol"/><use width="142" height="142" transform="translate(1432.27239 793.94152) scale(0.74971 0.61151)" xlink:href="#New_Symbol"/><use width="142" height="142" transform="translate(1462.39207 829.66575) scale(0.74971 0.61151)" xlink:href="#New_Symbol"/><use width="142" height="142" transform="translate(1440.28819 850.94272) scale(0.74971 0.61151)" xlink:href="#New_Symbol"/><use width="142" height="142" transform="translate(1269.05845 736.10854) scale(0.74971 0.61151)" xlink:href="#New_Symbol"/><use width="142" height="142" transform="translate(1369.04307 715.55112) scale(0.74971 0.61151)" xlink:href="#New_Symbol"/><use width="142" height="142" transform="translate(1370.88072 747.90841) scale(0.74971 0.61151)" xlink:href="#New_Symbol"/><use width="142" height="142" transform="translate(1628.33092 807.65732) scale(0.74971 0.61151)" xlink:href="#New_Symbol"/><use width="142" height="142" transform="translate(1718.69774 788.88191) scale(0.74971 0.61151)" xlink:href="#New_Symbol"/><use width="142" height="142" transform="translate(415.27826 296.95294) scale(0.74971 0.61151)" xlink:href="#New_Symbol"/><use width="142" height="142" transform="translate(405.09804 360.99648) scale(0.74971 0.61151)" xlink:href="#New_Symbol"/><use width="142" height="142" transform="translate(335.74865 465.21206) scale(0.74971 0.61151)" xlink:href="#New_Symbol"/><use width="142" height="142" transform="translate(441.11798 497.44131) scale(0.74971 0.61151)" xlink:href="#New_Symbol"/><use width="142" height="142" transform="translate(371.6142 535.95254) scale(0.74971 0.61151)" xlink:href="#New_Symbol"/><use width="142" height="142" transform="translate(403.95419 604.82334) scale(0.74971 0.61151)" xlink:href="#New_Symbol"/><use width="142" height="142" transform="translate(311.20141 502.1304) scale(0.74971 0.61151)" xlink:href="#New_Symbol"/><use width="142" height="142" transform="translate(320.6179 321.26804) scale(0.74971 0.61151)" xlink:href="#New_Symbol"/><use width="142" height="142" transform="translate(269.25134 266.8464) scale(0.74971 0.61151)" xlink:href="#New_Symbol"/><use width="142" height="142" transform="translate(284.86232 231.53547) scale(0.74971 0.61151)" xlink:href="#New_Symbol"/><use width="142" height="142" transform="translate(259.63718 216.54226) scale(0.74971 0.61151)" xlink:href="#New_Symbol"/><use width="142" height="142" transform="translate(131.74592 268.71681) scale(0.74971 0.61151)" xlink:href="#New_Symbol"/><use width="142" height="142" transform="translate(385.65502 311.75721) scale(0.74971 0.61151)" xlink:href="#New_Symbol"/><use width="142" height="142" transform="translate(558.22332 551.15631) scale(0.74971 0.61151)" xlink:href="#New_Symbol"/><use width="142" height="142" transform="translate(729.71026 535.40131) scale(0.74971 0.61151)" xlink:href="#New_Symbol"/><use width="142" height="142" transform="translate(669.07805 597.44931) scale(0.74971 0.61151)" xlink:href="#New_Symbol"/><use width="142" height="142" transform="translate(635.83121 756.5843) scale(0.74971 0.61151)" xlink:href="#New_Symbol"/><use width="142" height="142" transform="translate(645.18507 897.40591) scale(0.74971 0.61151)" xlink:href="#New_Symbol"/><use width="142" height="142" transform="translate(699.66198 890.03224) scale(0.74971 0.61151)" xlink:href="#New_Symbol"/><use width="142" height="142" transform="translate(593.0402 910.08093) scale(0.74971 0.61151)" xlink:href="#New_Symbol"/><use width="142" height="142" transform="translate(763.28194 816.7744) scale(0.74971 0.61151)" xlink:href="#New_Symbol"/><use width="142" height="142" transform="translate(697.16906 955.1941) scale(0.74971 0.61151)" xlink:href="#New_Symbol"/><use width="142" height="142" transform="translate(958.30855 895.0208) scale(0.74971 0.61151)" xlink:href="#New_Symbol"/><use width="142" height="142" transform="translate(1017.12903 859.42282) scale(0.74971 0.61151)" xlink:href="#New_Symbol"/><use width="142" height="142" transform="translate(1245.0007 691.36352) scale(0.74971 0.61151)" xlink:href="#New_Symbol"/><use width="142" height="142" transform="translate(1252.58231 598.62734) scale(0.74971 0.61151)" xlink:href="#New_Symbol"/><use width="142" height="142" transform="translate(1400.89924 520.4938) scale(0.74971 0.61151)" xlink:href="#New_Symbol"/><use width="142" height="142" transform="translate(1325.30152 582.933) scale(0.74971 0.61151)" xlink:href="#New_Symbol"/><use width="142" height="142" transform="translate(1554.23779 577.48162) scale(0.74971 0.61151)" xlink:href="#New_Symbol"/><use width="142" height="142" transform="translate(1648.12168 570.38949) scale(0.74971 0.61151)" xlink:href="#New_Symbol"/><use width="142" height="142" transform="translate(1625.32303 366.16743) scale(0.74971 0.61151)" xlink:href="#New_Symbol"/><use width="142" height="142" transform="translate(1666.08587 395.12197) scale(0.74971 0.61151)" xlink:href="#New_Symbol"/><use width="142" height="142" transform="translate(1727.91461 491.34407) scale(0.74971 0.61151)" xlink:href="#New_Symbol"/><use width="142" height="142" transform="translate(1619.16206 404.80021) scale(0.74971 0.61151)" xlink:href="#New_Symbol"/><use width="142" height="142" transform="translate(1700.58506 412.51927) scale(0.74971 0.61151)" xlink:href="#New_Symbol"/><use width="142" height="142" transform="translate(1573.19526 337.82106) scale(0.74971 0.61151)" xlink:href="#New_Symbol"/><use width="142" height="142" transform="translate(1684.69912 343.07526) scale(0.74971 0.61151)" xlink:href="#New_Symbol"/><use width="142" height="142" transform="translate(1637.11078 427.61623) scale(0.74971 0.61151)" xlink:href="#New_Symbol"/><use width="142" height="142" transform="translate(1742.5062 342.5887) scale(0.74971 0.61151)" xlink:href="#New_Symbol"/><use width="142" height="142" transform="translate(1625.07495 290.45253) scale(0.74971 0.61151)" xlink:href="#New_Symbol"/><use width="142" height="142" transform="translate(1787.23562 272.29828) scale(0.74971 0.61151)" xlink:href="#New_Symbol"/><use width="142" height="142" transform="translate(1551.21153 214.81933) scale(0.74971 0.61151)" xlink:href="#New_Symbol"/><use width="142" height="142" transform="translate(1664.8414 225.027) scale(0.74971 0.61151)" xlink:href="#New_Symbol"/><use width="142" height="142" transform="translate(1496.53084 249.13774) scale(0.74971 0.61151)" xlink:href="#New_Symbol"/><use width="142" height="142" transform="translate(1593.34449 218.15142) scale(0.74971 0.61151)" xlink:href="#New_Symbol"/><use width="142" height="142" transform="translate(1666.41269 447.57395) scale(0.74971 0.61151)" xlink:href="#New_Symbol"/><use width="142" height="142" transform="translate(1781.62341 425.27448) scale(0.74971 0.61151)" xlink:href="#New_Symbol"/><use width="142" height="142" transform="translate(1671.24596 315.0993) scale(0.74971 0.61151)" xlink:href="#New_Symbol"/><use width="142" height="142" transform="translate(1171.73111 372.85267) scale(0.74971 0.61151)" xlink:href="#New_Symbol"/><use width="142" height="142" transform="translate(1266.82791 653.39608) scale(0.74971 0.61151)" xlink:href="#New_Symbol"/><use width="142" height="142" transform="translate(1195.96394 861.31277) scale(0.74971 0.61151)" xlink:href="#New_Symbol"/><use width="142" height="142" transform="translate(1060.69652 897.59424) scale(0.74971 0.61151)" xlink:href="#New_Symbol"/><use width="142" height="142" transform="translate(1093.60062 960.70865) scale(0.74971 0.61151)" xlink:href="#New_Symbol"/><use width="142" height="142" transform="translate(1101.27381 1000.55216) scale(0.74971 0.61151)" xlink:href="#New_Symbol"/><use width="142" height="142" transform="translate(1350.06741 983.15185) scale(0.74971 0.61151)" xlink:href="#New_Symbol"/><use width="142" height="142" transform="translate(1492.46192 982.81832) scale(0.74971 0.61151)" xlink:href="#New_Symbol"/><use width="142" height="142" transform="translate(1588.48015 973.0013) scale(0.74971 0.61151)" xlink:href="#New_Symbol"/><use width="142" height="142" transform="translate(1622.56779 964.19769) scale(0.74971 0.61151)" xlink:href="#New_Symbol"/><use width="142" height="142" transform="translate(1722.82706 963.16178) scale(0.74971 0.61151)" xlink:href="#New_Symbol"/><use width="142" height="142" transform="translate(1684.44315 953.23108) scale(0.74971 0.61151)" xlink:href="#New_Symbol"/><use width="142" height="142" transform="translate(1797.42695 934.23269) scale(0.74971 0.61151)" xlink:href="#New_Symbol"/><use width="142" height="142" transform="translate(1712.30609 918.19946) scale(0.74971 0.61151)" xlink:href="#New_Symbol"/><use width="142" height="142" transform="translate(1754.94514 869.69367) scale(0.74971 0.61151)" xlink:href="#New_Symbol"/><use width="142" height="142" transform="translate(1563.76722 835.22152) scale(0.74971 0.61151)" xlink:href="#New_Symbol"/><use width="142" height="142" transform="translate(1608.15573 837.39244) scale(0.74971 0.61151)" xlink:href="#New_Symbol"/><use width="142" height="142" transform="translate(1661.12494 813.15711) scale(0.74971 0.61151)" xlink:href="#New_Symbol"/><use width="142" height="142" transform="translate(1605.21486 788.65242) scale(0.74971 0.61151)" xlink:href="#New_Symbol"/><use width="142" height="142" transform="translate(1668.55475 777.4475) scale(0.74971 0.61151)" xlink:href="#New_Symbol"/><use width="142" height="142" transform="translate(1664.05977 688.84002) scale(0.74971 0.61151)" xlink:href="#New_Symbol"/><use width="142" height="142" transform="translate(1740.21255 625.3007) scale(0.74971 0.61151)" xlink:href="#New_Symbol"/><use width="142" height="142" transform="translate(1759.13907 570.45903) scale(0.74971 0.61151)" xlink:href="#New_Symbol"/><use width="142" height="142" transform="translate(1760.80836 471.27488) scale(0.74971 0.61151)" xlink:href="#New_Symbol"/><use width="142" height="142" transform="translate(1714.2666 384.75453) scale(0.74971 0.61151)" xlink:href="#New_Symbol"/><use width="142" height="142" transform="translate(1704.25099 300.01769) scale(0.74971 0.61151)" xlink:href="#New_Symbol"/><use width="142" height="142" transform="translate(1723.85638 240.13429) scale(0.74971 0.61151)" xlink:href="#New_Symbol"/><use width="142" height="142" transform="translate(1708.54596 168.82554) scale(0.74971 0.61151)" xlink:href="#New_Symbol"/><use width="142" height="142" transform="translate(1659.17475 121.74568) scale(0.74971 0.61151)" xlink:href="#New_Symbol"/><use width="142" height="142" transform="translate(1670.81691 94.0314) scale(0.74971 0.61151)" xlink:href="#New_Symbol"/><use width="142" height="142" transform="translate(1616.73318 70.60373) scale(0.74971 0.61151)" xlink:href="#New_Symbol"/><use width="142" height="142" transform="translate(1651.01827 51.05876) scale(0.74971 0.61151)" xlink:href="#New_Symbol"/><use width="142" height="142" transform="translate(1626.61346 27.60814) scale(0.74971 0.61151)" xlink:href="#New_Symbol"/><use width="142" height="142" transform="translate(1588.87236 42.09075) scale(0.74971 0.61151)" xlink:href="#New_Symbol"/><use width="142" height="142" transform="translate(1488.44564 12.09644) scale(0.74971 0.61151)" xlink:href="#New_Symbol"/><use width="142" height="142" transform="translate(1514.84577 -8.59369) scale(0.74971 0.61151)" xlink:href="#New_Symbol"/><use width="142" height="142" transform="translate(1524.21534 27.84633) scale(0.74971 0.61151)" xlink:href="#New_Symbol"/><use width="142" height="142" transform="translate(1603.82776 6.48004) scale(0.74971 0.61151)" xlink:href="#New_Symbol"/><use width="142" height="142" transform="translate(1573.87583 1.89549) scale(0.74971 0.61151)" xlink:href="#New_Symbol"/><use width="142" height="142" transform="translate(1617.13123 128.23189) scale(0.74971 0.61151)" xlink:href="#New_Symbol"/><use width="142" height="142" transform="translate(1523.23495 132.90432) scale(0.74971 0.61151)" xlink:href="#New_Symbol"/><use width="142" height="142" transform="translate(1300.74876 56.77554) scale(0.74971 0.61151)" xlink:href="#New_Symbol"/><use width="142" height="142" transform="translate(1393.56069 134.32382) scale(0.74971 0.61151)" xlink:href="#New_Symbol"/><use width="142" height="142" transform="translate(1125.3953 90.51655) scale(0.74971 0.61151)" xlink:href="#New_Symbol"/><use width="142" height="142" transform="translate(1096.50622 113.62763) scale(0.74971 0.61151)" xlink:href="#New_Symbol"/><use width="142" height="142" transform="translate(860.55284 85.31473) scale(0.74971 0.61151)" xlink:href="#New_Symbol"/><use width="142" height="142" transform="translate(560.39688 118.78476) scale(0.74971 0.61151)" xlink:href="#New_Symbol"/><use width="142" height="142" transform="translate(337.79193 144.64881) scale(0.74971 0.61151)" xlink:href="#New_Symbol"/><use width="142" height="142" transform="translate(124.8473 196.21758) scale(0.74971 0.61151)" xlink:href="#New_Symbol"/><use width="142" height="142" transform="translate(175.38541 158.07261) scale(0.74971 0.61151)" xlink:href="#New_Symbol"/><use width="142" height="142" transform="translate(99.74914 139.14378) scale(0.74971 0.61151)" xlink:href="#New_Symbol"/><use width="142" height="142" transform="translate(-8.48045 145.75412) scale(0.74971 0.61151)" xlink:href="#New_Symbol"/><use width="142" height="142" transform="translate(40.89884 160.97653) scale(0.74971 0.61151)" xlink:href="#New_Symbol"/><use width="142" height="142" transform="translate(48.99286 129.04872) scale(0.74971 0.61151)" xlink:href="#New_Symbol"/><use width="142" height="142" transform="translate(190.82968 92.83877) scale(0.74971 0.61151)" xlink:href="#New_Symbol"/><use width="142" height="142" transform="translate(67.4953 26.07062) scale(0.74971 0.61151)" xlink:href="#New_Symbol"/><use width="142" height="142" transform="translate(156.71011 73.02559) scale(0.74971 0.61151)" xlink:href="#New_Symbol"/><use width="142" height="142" transform="translate(349.47534 180.38482) scale(0.74971 0.61151)" xlink:href="#New_Symbol"/><use width="142" height="142" transform="translate(479.81841 218.70665) scale(0.74971 0.61151)" xlink:href="#New_Symbol"/><use width="142" height="142" transform="translate(287.53738 177.95685) scale(0.74971 0.61151)" xlink:href="#New_Symbol"/><use width="142" height="142" transform="translate(341.35317 375.32058) scale(0.74971 0.61151)" xlink:href="#New_Symbol"/><use width="142" height="142" transform="translate(151.82828 626.14773) scale(0.74971 0.61151)" xlink:href="#New_Symbol"/><use width="142" height="142" transform="translate(118.47198 782.79672) scale(0.74971 0.61151)" xlink:href="#New_Symbol"/><use width="142" height="142" transform="translate(35.3074 816.219) scale(0.74971 0.61151)" xlink:href="#New_Symbol"/><use width="142" height="142" transform="translate(83.54131 875.89259) scale(0.74971 0.61151)" xlink:href="#New_Symbol"/><use width="142" height="142" transform="translate(177.88408 923.30217) scale(0.74971 0.61151)" xlink:href="#New_Symbol"/><use width="142" height="142" transform="translate(232.9591 946.13641) scale(0.74971 0.61151)" xlink:href="#New_Symbol"/><use width="142" height="142" transform="translate(376.44977 982.17955) scale(0.74971 0.61151)" xlink:href="#New_Symbol"/><use width="142" height="142" transform="translate(439.60244 986.08882) scale(0.74971 0.61151)" xlink:href="#New_Symbol"/><use width="142" height="142" transform="translate(623.36217 965.79637) scale(0.74971 0.61151)" xlink:href="#New_Symbol"/><use width="142" height="142" transform="translate(553.95258 870.26859) scale(0.74971 0.61151)" xlink:href="#New_Symbol"/><use width="142" height="142" transform="translate(496.70571 828.10513) scale(0.74971 0.61151)" xlink:href="#New_Symbol"/><use width="142" height="142" transform="translate(529.91282 778.8675) scale(0.74971 0.61151)" xlink:href="#New_Symbol"/><use width="142" height="142" transform="translate(150.54748 710.91659) scale(0.74971 0.61151)" xlink:href="#New_Symbol"/><use width="142" height="142" transform="translate(253.15045 779.05782) scale(0.74971 0.61151)" xlink:href="#New_Symbol"/><use width="142" height="142" transform="translate(217.21487 813.91857) scale(0.74971 0.61151)" xlink:href="#New_Symbol"/><use width="142" height="142" transform="translate(396.67224 824.32685) scale(0.74971 0.61151)" xlink:href="#New_Symbol"/><use width="142" height="142" transform="translate(247.25841 725.49424) scale(0.74971 0.61151)" xlink:href="#New_Symbol"/><use width="142" height="142" transform="translate(251.68962 662.96908) scale(0.74971 0.61151)" xlink:href="#New_Symbol"/><use width="142" height="142" transform="translate(215.90814 633.16973) scale(0.74971 0.61151)" xlink:href="#New_Symbol"/><use width="142" height="142" transform="translate(350.05587 836.68829) scale(0.74971 0.61151)" xlink:href="#New_Symbol"/><use width="142" height="142" transform="translate(647.691 843.48805) scale(0.74971 0.61151)" xlink:href="#New_Symbol"/><use width="142" height="142" transform="translate(958.23123 735.07802) scale(0.74971 0.61151)" xlink:href="#New_Symbol"/><use width="142" height="142" transform="translate(1093.98046 583.27) scale(0.74971 0.61151)" xlink:href="#New_Symbol"/><use width="142" height="142" transform="translate(979.30527 447.59732) scale(0.74971 0.61151)" xlink:href="#New_Symbol"/><use width="142" height="142" transform="translate(1032.63653 480.09069) scale(0.74971 0.61151)" xlink:href="#New_Symbol"/><use width="142" height="142" transform="translate(811.01819 573.10829) scale(0.74971 0.61151)" xlink:href="#New_Symbol"/><use width="142" height="142" transform="translate(996.92747 747.70093) scale(0.74971 0.61151)" xlink:href="#New_Symbol"/><use width="142" height="142" transform="translate(970.66463 842.68459) scale(0.74971 0.61151)" xlink:href="#New_Symbol"/><use width="142" height="142" transform="translate(849.13168 868.18404) scale(0.74971 0.61151)" xlink:href="#New_Symbol"/><use width="142" height="142" transform="translate(908.0422 860.53155) scale(0.74971 0.61151)" xlink:href="#New_Symbol"/><use width="142" height="142" transform="translate(912.33102 930.08484) scale(0.74971 0.61151)" xlink:href="#New_Symbol"/><use width="142" height="142" transform="translate(944.79136 946.52875) scale(0.74971 0.61151)" xlink:href="#New_Symbol"/><use width="142" height="142" transform="translate(843.53236 822.37736) scale(0.74971 0.61151)" xlink:href="#New_Symbol"/><use width="142" height="142" transform="translate(1042.05345 832.3647) scale(0.74971 0.61151)" xlink:href="#New_Symbol"/><use width="142" height="142" transform="translate(784.18097 741.36506) scale(0.74971 0.61151)" xlink:href="#New_Symbol"/><use width="142" height="142" transform="translate(974.43189 790.53503) scale(0.74971 0.61151)" xlink:href="#New_Symbol"/><use width="142" height="142" transform="translate(898.59588 763.30481) scale(0.74971 0.61151)" xlink:href="#New_Symbol"/><use width="142" height="142" transform="translate(1105.01469 713.4506) scale(0.74971 0.61151)" xlink:href="#New_Symbol"/><use width="142" height="142" transform="translate(962.97605 626.49573) scale(0.74971 0.61151)" xlink:href="#New_Symbol"/><use width="142" height="142" transform="translate(1035.95159 622.54754) scale(0.74971 0.61151)" xlink:href="#New_Symbol"/><use width="142" height="142" transform="translate(1090.0681 478.74707) scale(0.74971 0.61151)" xlink:href="#New_Symbol"/><use width="142" height="142" transform="translate(896.72603 156.77906) scale(0.74971 0.61151)" xlink:href="#New_Symbol"/><use width="142" height="142" transform="translate(995.72904 132.48404) scale(0.74971 0.61151)" xlink:href="#New_Symbol"/><use width="142" height="142" transform="translate(953.64033 87.632) scale(0.74971 0.61151)" xlink:href="#New_Symbol"/><use width="142" height="142" transform="translate(702.03203 68.88709) scale(0.74971 0.61151)" xlink:href="#New_Symbol"/><use width="142" height="142" transform="translate(531.87967 82.95989) scale(0.74971 0.61151)" xlink:href="#New_Symbol"/><use width="142" height="142" transform="translate(452.17225 81.21167) scale(0.74971 0.61151)" xlink:href="#New_Symbol"/><use width="142" height="142" transform="translate(526.33897 179.09652) scale(0.74971 0.61151)" xlink:href="#New_Symbol"/><use width="142" height="142" transform="translate(599.7547 206.98915) scale(0.74971 0.61151)" xlink:href="#New_Symbol"/><use width="142" height="142" transform="translate(952.81273 259.51934) scale(0.74971 0.61151)" xlink:href="#New_Symbol"/><use width="142" height="142" transform="translate(1382.07568 275.44975) scale(0.74971 0.61151)" xlink:href="#New_Symbol"/><use width="142" height="142" transform="translate(1710.90182 449.24322) scale(0.74971 0.61151)" xlink:href="#New_Symbol"/><use width="142" height="142" transform="translate(1612.30743 659.53408) scale(0.74971 0.61151)" xlink:href="#New_Symbol"/><use width="142" height="142" transform="translate(1486.03597 680.29731) scale(0.74971 0.61151)" xlink:href="#New_Symbol"/><use width="142" height="142" transform="translate(1521.15318 846.96512) scale(0.74971 0.61151)" xlink:href="#New_Symbol"/><use width="142" height="142" transform="translate(1589.7636 925.89288) scale(0.74971 0.61151)" xlink:href="#New_Symbol"/><use width="142" height="142" transform="translate(1364.27285 925.912) scale(0.74971 0.61151)" xlink:href="#New_Symbol"/><use width="142" height="142" transform="translate(1495.60105 917.10649) scale(0.74971 0.61151)" xlink:href="#New_Symbol"/><use width="142" height="142" transform="translate(1480.89748 873.38419) scale(0.74971 0.61151)" xlink:href="#New_Symbol"/><use width="142" height="142" transform="translate(1148.24339 1038.92611) scale(0.74971 0.61151)" xlink:href="#New_Symbol"/><use width="142" height="142" transform="translate(1100.48633 897.84528) scale(0.74971 0.61151)" xlink:href="#New_Symbol"/><use width="142" height="142" transform="translate(997.61213 992.75088) scale(0.74971 0.61151)" xlink:href="#New_Symbol"/><use width="142" height="142" transform="translate(818.0327 857.21457) scale(0.74971 0.61151)" xlink:href="#New_Symbol"/><use width="142" height="142" transform="translate(1011.6445 911.30519) scale(0.74971 0.61151)" xlink:href="#New_Symbol"/><use width="142" height="142" transform="translate(760.34793 977.65977) scale(0.74971 0.61151)" xlink:href="#New_Symbol"/><use width="142" height="142" transform="translate(898.98515 990.56639) scale(0.74971 0.61151)" xlink:href="#New_Symbol"/><use width="142" height="142" transform="translate(509.67398 989.334) scale(0.74971 0.61151)" xlink:href="#New_Symbol"/><use width="142" height="142" transform="translate(659.00549 932.28713) scale(0.74971 0.61151)" xlink:href="#New_Symbol"/><use width="142" height="142" transform="translate(800.14895 897.38093) scale(0.74971 0.61151)" xlink:href="#New_Symbol"/><use width="142" height="142" transform="translate(730.43927 710.66566) scale(0.74971 0.61151)" xlink:href="#New_Symbol"/><use width="142" height="142" transform="translate(678.46915 756.18747) scale(0.74971 0.61151)" xlink:href="#New_Symbol"/><use width="142" height="142" transform="translate(1150.75109 913.50672) scale(0.74971 0.61151)" xlink:href="#New_Symbol"/><use width="142" height="142" transform="translate(1007.06 1036.82301) scale(0.74971 0.61151)" xlink:href="#New_Symbol"/><use width="142" height="142" transform="translate(851.57732 992.1704) scale(0.74971 0.61151)" xlink:href="#New_Symbol"/><use width="142" height="142" transform="translate(1131.94913 993.58536) scale(0.74971 0.61151)" xlink:href="#New_Symbol"/><use width="142" height="142" transform="translate(787.26919 1024.15598) scale(0.74971 0.61151)" xlink:href="#New_Symbol"/><use width="142" height="142" transform="translate(898.868 724.82067) scale(0.74971 0.61151)" xlink:href="#New_Symbol"/><use width="142" height="142" transform="translate(1050.08577 795.88026) scale(0.74971 0.61151)" xlink:href="#New_Symbol"/><use width="142" height="142" transform="translate(632.51493 706.27056) scale(0.74971 0.61151)" xlink:href="#New_Symbol"/><use width="142" height="142" transform="translate(1066.4026 720.17039) scale(0.74971 0.61151)" xlink:href="#New_Symbol"/><use width="142" height="142" transform="translate(1203.86534 822.45076) scale(0.74971 0.61151)" xlink:href="#New_Symbol"/><use width="142" height="142" transform="translate(583.32483 791.223) scale(0.74971 0.61151)" xlink:href="#New_Symbol"/><use width="142" height="142" transform="translate(858.38098 648.07242) scale(0.74971 0.61151)" xlink:href="#New_Symbol"/><use width="142" height="142" transform="translate(955.84352 696.31098) scale(0.74971 0.61151)" xlink:href="#New_Symbol"/><use width="142" height="142" transform="translate(834.30211 602.55383) scale(0.74971 0.61151)" xlink:href="#New_Symbol"/><use width="142" height="142" transform="translate(691.57711 697.56945) scale(0.74971 0.61151)" xlink:href="#New_Symbol"/><use width="142" height="142" transform="translate(533.67686 848.12426) scale(0.74971 0.61151)" xlink:href="#New_Symbol"/><use width="142" height="142" transform="translate(548.00452 981.48867) scale(0.74971 0.61151)" xlink:href="#New_Symbol"/><use width="142" height="142" transform="translate(1069.02634 1048.59743) scale(0.74971 0.61151)" xlink:href="#New_Symbol"/><use width="142" height="142" transform="translate(1330.88821 1026.38054) scale(0.74971 0.61151)" xlink:href="#New_Symbol"/><use width="142" height="142" transform="translate(1257.36986 861.707) scale(0.74971 0.61151)" xlink:href="#New_Symbol"/><use width="142" height="142" transform="translate(866.27331 780.3444) scale(0.74971 0.61151)" xlink:href="#New_Symbol"/><use width="142" height="142" transform="translate(708.67243 794.47816) scale(0.74971 0.61151)" xlink:href="#New_Symbol"/><use width="142" height="142" transform="translate(1619.55602 704.8675) scale(0.74971 0.61151)" xlink:href="#New_Symbol"/><use width="142" height="142" transform="translate(1693.89985 664.09007) scale(0.74971 0.61151)" xlink:href="#New_Symbol"/><use width="142" height="142" transform="translate(1647.28359 873.5782) scale(0.74971 0.61151)" xlink:href="#New_Symbol"/><use width="142" height="142" transform="translate(1716.66944 821.54836) scale(0.74971 0.61151)" xlink:href="#New_Symbol"/><use width="142" height="142" transform="translate(1686.25839 847.5687) scale(0.74971 0.61151)" xlink:href="#New_Symbol"/><rect class="cls-12" width="1920" height="1080"/></g></g></g></g></svg>